<svg width="480" height="480" viewBox="0 0 480 480" fill="none" xmlns="http://www.w3.org/2000/svg">
<path d="M480 367.104H0V367.344H480V367.104Z" fill="#E6E6E6"/>
<path d="M119.827 381.628H88.032V381.868H119.827V381.628Z" fill="#E6E6E6"/>
<path d="M77.9712 381.628H59.5488V381.868H77.9712V381.628Z" fill="#E6E6E6"/>
<path d="M202.128 385.162H183.706V385.402H202.128V385.162Z" fill="#E6E6E6"/>
<path d="M298.186 390.518H256.723V390.758H298.186V390.518Z" fill="#E6E6E6"/>
<path d="M248.179 390.518H242.102V390.758H248.179V390.518Z" fill="#E6E6E6"/>
<path d="M435.216 385.162H345.283V385.402H435.216V385.162Z" fill="#E6E6E6"/>
<path d="M227.52 324.288H42.1536C40.7014 324.285 39.3096 323.707 38.2837 322.679C37.2578 321.651 36.6816 320.258 36.6816 318.806V58.2334C36.6942 56.7896 37.276 55.4091 38.3006 54.3917C39.3251 53.3743 40.7097 52.8023 42.1536 52.7998H227.52C228.974 52.7998 230.368 53.3773 231.396 54.4053C232.424 55.4333 233.002 56.8276 233.002 58.2814V318.806C233.002 320.26 232.424 321.654 231.396 322.682C230.368 323.71 228.974 324.288 227.52 324.288V324.288ZM42.1536 52.9918C40.7651 52.9943 39.4343 53.5477 38.4534 54.5304C37.4725 55.5131 36.9216 56.8449 36.9216 58.2334V318.806C36.9216 320.195 37.4725 321.526 38.4534 322.509C39.4343 323.492 40.7651 324.045 42.1536 324.048H227.52C228.909 324.045 230.241 323.492 231.224 322.51C232.206 321.527 232.759 320.196 232.762 318.806V58.2334C232.759 56.844 232.206 55.5123 231.224 54.5298C230.241 53.5474 228.909 52.9943 227.52 52.9918H42.1536Z" fill="#E6E6E6"/>
<path d="M435.178 324.288H249.802C248.349 324.285 246.956 323.707 245.928 322.679C244.901 321.652 244.323 320.259 244.32 318.806V58.2334C244.335 56.7887 244.919 55.4082 245.945 54.3911C246.971 53.374 248.357 52.8023 249.802 52.7998H435.178C436.62 52.8048 438.002 53.378 439.024 54.3951C440.047 55.4122 440.627 56.7912 440.64 58.2334V318.806C440.64 320.257 440.065 321.648 439.041 322.676C438.017 323.703 436.628 324.283 435.178 324.288V324.288ZM249.802 52.9918C248.412 52.9943 247.08 53.5474 246.098 54.5298C245.116 55.5123 244.563 56.844 244.56 58.2334V318.806C244.563 320.196 245.116 321.527 246.098 322.51C247.08 323.492 248.412 324.045 249.802 324.048H435.178C436.567 324.045 437.899 323.492 438.881 322.51C439.864 321.527 440.417 320.196 440.419 318.806V58.2334C440.417 56.844 439.864 55.5123 438.881 54.5298C437.899 53.5474 436.567 52.9943 435.178 52.9918H249.802Z" fill="#E6E6E6"/>
<path d="M256.704 285.101H235.594V368.841H256.704V285.101Z" fill="#E0E0E0"/>
<path d="M252.691 368.841H256.704V357.437H248.486L252.691 368.841Z" fill="#FAFAFA"/>
<path d="M164.198 285.101H143.088V368.841H164.198V285.101Z" fill="#E0E0E0"/>
<path d="M256.704 285.101H160.704V361.843H256.704V285.101Z" fill="#FAFAFA"/>
<path d="M253.219 288.873V309.177H164.16V288.873H253.19M253.565 288.499H163.814V309.542H253.594V288.499H253.565Z" fill="#E0E0E0"/>
<path d="M164.707 368.841H160.704V357.437H168.912L164.707 368.841Z" fill="#FAFAFA"/>
<path d="M206.582 299.021C206.582 299.44 206.707 299.85 206.94 300.199C207.173 300.548 207.504 300.82 207.892 300.981C208.28 301.141 208.706 301.183 209.118 301.101C209.529 301.019 209.907 300.817 210.204 300.521C210.501 300.224 210.703 299.846 210.785 299.434C210.867 299.023 210.825 298.596 210.664 298.209C210.504 297.821 210.232 297.49 209.883 297.256C209.534 297.023 209.124 296.899 208.704 296.899C208.141 296.899 207.602 297.122 207.204 297.52C206.806 297.918 206.582 298.458 206.582 299.021V299.021Z" fill="#E6E6E6"/>
<path d="M253.219 313.315V333.619H164.16V313.315H253.19M253.565 312.95H163.814V333.993H253.594V312.96L253.565 312.95Z" fill="#E0E0E0"/>
<path d="M206.582 323.52C206.582 323.94 206.707 324.35 206.94 324.699C207.173 325.048 207.504 325.32 207.892 325.48C208.28 325.641 208.706 325.683 209.118 325.601C209.529 325.519 209.907 325.317 210.204 325.02C210.501 324.724 210.703 324.345 210.785 323.934C210.867 323.522 210.825 323.096 210.664 322.708C210.504 322.32 210.232 321.989 209.883 321.756C209.534 321.523 209.124 321.398 208.704 321.398C208.141 321.398 207.602 321.622 207.204 322.02C206.806 322.418 206.582 322.957 206.582 323.52Z" fill="#E6E6E6"/>
<path d="M253.219 337.766V358.08H164.16V337.766H253.19M253.565 337.392H163.814V358.444H253.594V337.392H253.565Z" fill="#E0E0E0"/>
<path d="M206.582 347.923C206.584 348.342 206.71 348.752 206.945 349.099C207.179 349.447 207.511 349.717 207.899 349.876C208.287 350.036 208.713 350.076 209.124 349.993C209.535 349.91 209.912 349.707 210.208 349.41C210.503 349.113 210.704 348.735 210.786 348.324C210.867 347.913 210.824 347.487 210.663 347.099C210.502 346.712 210.23 346.382 209.882 346.149C209.533 345.916 209.123 345.792 208.704 345.792C208.425 345.792 208.148 345.847 207.89 345.954C207.632 346.062 207.398 346.219 207.2 346.417C207.003 346.615 206.847 346.85 206.741 347.108C206.635 347.367 206.581 347.644 206.582 347.923V347.923Z" fill="#E6E6E6"/>
<path d="M151.306 236.467H130.195V368.851H151.306V236.467Z" fill="#E0E0E0"/>
<path d="M147.293 368.841H151.306V357.437H143.098L147.293 368.841Z" fill="#FAFAFA"/>
<path d="M72.4128 236.467H51.3024V368.851H72.4128V236.467Z" fill="#E0E0E0"/>
<path d="M151.306 236.467H68.9088V361.852H151.306V236.467Z" fill="#FAFAFA"/>
<path d="M147.754 240V268.387H72.4608V240H147.754M148.195 239.568H72V268.8H148.176V239.577L148.195 239.568Z" fill="#E0E0E0"/>
<path d="M147.754 271.853V347.146H111.888V271.853H147.754ZM148.195 271.411H111.456V347.587H148.195V271.411Z" fill="#E0E0E0"/>
<path d="M108.326 271.853V347.146H72.4608V271.853H108.326ZM108.758 271.411H72V347.587H108.739V271.411H108.758Z" fill="#E0E0E0"/>
<path d="M72.9216 368.841H68.9088V357.437H77.1264L72.9216 368.841Z" fill="#FAFAFA"/>
<path d="M107.981 254.208C107.979 254.63 108.102 255.043 108.335 255.395C108.568 255.746 108.9 256.021 109.29 256.184C109.679 256.347 110.108 256.39 110.522 256.309C110.936 256.228 111.317 256.026 111.616 255.728C111.915 255.43 112.118 255.051 112.202 254.637C112.285 254.223 112.243 253.794 112.082 253.404C111.921 253.014 111.648 252.681 111.297 252.446C110.946 252.212 110.534 252.086 110.112 252.086C109.548 252.086 109.008 252.31 108.608 252.707C108.209 253.105 107.983 253.644 107.981 254.208Z" fill="#E6E6E6"/>
<path d="M115.584 307.708C115.584 308.13 115.709 308.543 115.944 308.893C116.178 309.244 116.512 309.517 116.902 309.678C117.292 309.839 117.721 309.881 118.135 309.798C118.548 309.715 118.928 309.511 119.226 309.212C119.523 308.913 119.725 308.532 119.807 308.118C119.888 307.704 119.844 307.275 119.681 306.886C119.519 306.497 119.244 306.165 118.892 305.932C118.541 305.699 118.128 305.575 117.706 305.577C117.426 305.577 117.15 305.632 116.891 305.74C116.633 305.847 116.399 306.004 116.202 306.202C116.005 306.4 115.849 306.635 115.743 306.894C115.637 307.152 115.583 307.429 115.584 307.708V307.708Z" fill="#E6E6E6"/>
<path d="M100.387 307.709C100.389 308.128 100.515 308.537 100.749 308.885C100.984 309.233 101.316 309.503 101.704 309.662C102.091 309.821 102.518 309.862 102.929 309.779C103.339 309.696 103.717 309.493 104.012 309.196C104.308 308.899 104.509 308.521 104.59 308.11C104.671 307.698 104.629 307.272 104.468 306.885C104.307 306.498 104.035 306.167 103.686 305.935C103.338 305.702 102.928 305.578 102.509 305.578C102.229 305.578 101.953 305.633 101.695 305.74C101.437 305.847 101.202 306.004 101.005 306.202C100.808 306.4 100.652 306.635 100.546 306.894C100.44 307.153 100.386 307.429 100.387 307.709V307.709Z" fill="#E6E6E6"/>
<path d="M97.9872 199.555H89.088C89.9081 203.872 90.4246 208.241 90.6336 212.63C90.6336 217.43 83.856 236.467 93.5136 236.467C103.171 236.467 96.3936 217.478 96.3936 212.63C96.6185 208.24 97.151 203.871 97.9872 199.555V199.555Z" fill="#E0E0E0"/>
<path d="M64.128 219.024V224.784C64.1381 227.872 65.3692 230.83 67.5527 233.014C69.7361 235.197 72.6946 236.428 75.7824 236.438H81.5424C84.6302 236.428 87.5887 235.197 89.7721 233.014C91.9555 230.83 93.1867 227.872 93.1968 224.784V219.024H64.128Z" fill="#F5F5F5"/>
<path d="M187.843 272.89C187.843 279.61 195.36 285.101 204.547 285.101H212.842C222.029 285.101 229.546 279.61 229.546 272.89H187.843Z" fill="#E0E0E0"/>
<path d="M407.626 263.04C402.595 267.148 395.645 274.665 389.29 285.244C385.046 292.291 382.493 299.644 381.37 309.417C381.37 298.377 381.437 286.521 381.475 275.328C382.752 272.448 385.67 265.804 387.763 260.563C394.742 243.062 397.363 238.752 403.632 223.66C412.013 203.5 420.595 179.635 418.138 181.545C413.126 185.433 393.926 221.385 391.853 226.531C386.201 240.263 382.707 254.787 381.494 269.587C381.494 259.027 381.571 249.427 381.61 241.977C381.744 217.68 382.157 209.836 382.358 207.417C383.136 206.188 384.048 204.758 384.586 203.99C389.098 197.462 390.835 191.913 395.078 182.179C401.107 168.403 406.291 143.932 404.774 145.161C398.458 150.307 393.485 161.347 386.938 175.43C380.39 189.513 382.262 197.606 380.966 209.625C380.698 211.987 380.486 220.896 380.333 233.232C378.643 220.08 375.456 211.42 369.648 203.548C362.506 193.862 355.594 187.324 350.525 183.907C345.456 180.489 359.28 204.278 365.885 214.627C371.77 223.881 377.194 232.032 380.285 240.067C380.122 256.8 380.045 277.977 380.045 297.667C378.528 288.7 376.051 279.033 372.749 271.555C368.774 262.569 362.669 248.784 357.802 244.108C356.64 242.985 362.89 269.798 366.902 276.921C370.915 284.044 373.862 290.774 376.387 294.816C376.973 295.776 378.931 299.395 380.045 301.488C380.045 325.555 380.179 346.79 380.39 354.019H381.427C381.36 352.156 381.341 339.907 381.37 323.702C383.875 314.908 389.597 304.867 394.32 295.708C399.466 285.792 412.656 258.96 407.626 263.04Z" fill="#E0E0E0"/>
<path d="M395.942 368.841H365.856L363.581 339.35H398.218L395.942 368.841Z" fill="#F0F0F0"/>
<path d="M400.454 342.787H361.334L360.221 332.832H401.578L400.454 342.787Z" fill="#F5F5F5"/>
<path d="M119.29 72.48H65.4816V131.568H119.29V72.48Z" fill="#E0E0E0"/>
<path d="M125.117 72.48H69.5328V131.568H125.117V72.48Z" fill="#F5F5F5"/>
<path d="M120.461 126.912V77.1357H74.1888V126.912H120.461Z" fill="white"/>
<path d="M109.238 114.835V89.1934H85.4016V114.835H109.238Z" fill="#F5F5F5"/>
<path d="M393.648 79.3628H343.661V134.256H393.648V79.3628Z" fill="#E0E0E0"/>
<path d="M399.062 79.3628H347.434V134.256H399.062V79.3628Z" fill="#F5F5F5"/>
<path d="M394.742 129.926V83.6924H351.763V129.926H394.742Z" fill="white"/>
<path d="M373.248 120.221C380.655 120.221 386.659 114.216 386.659 106.81C386.659 99.4028 380.655 93.3984 373.248 93.3984C365.841 93.3984 359.837 99.4028 359.837 106.81C359.837 114.216 365.841 120.221 373.248 120.221Z" fill="#F5F5F5"/>
<path d="M175.19 107.712H135.274V151.546H175.19V107.712Z" fill="#E0E0E0"/>
<path d="M179.51 107.712H138.278V151.546H179.51V107.712Z" fill="#F5F5F5"/>
<path d="M176.054 148.09V111.168H141.734V148.09H176.054Z" fill="white"/>
<path d="M158.899 120.288L149.51 136.55H168.288L158.899 120.288Z" fill="#F5F5F5"/>
<path d="M240 410.458C342.799 410.458 426.134 405.592 426.134 399.59C426.134 393.589 342.799 388.723 240 388.723C137.201 388.723 53.8656 393.589 53.8656 399.59C53.8656 405.592 137.201 410.458 240 410.458Z" fill="#F5F5F5"/>
<path d="M335.28 156.893L325.757 153.053C325.757 153.053 313.19 175.968 309.59 177.13C304.694 178.704 294.557 183.082 288.547 183.85C287.731 184.81 286.397 187.795 286.522 188.88C294.595 191.578 312.336 187.997 316.138 185.174C324.787 178.771 335.28 156.893 335.28 156.893Z" fill="#E58A7B"/>
<path d="M338.208 151.68C339.984 158.237 330.365 171.427 330.365 171.427L317.76 164.362C317.76 164.362 320.122 158.938 323.002 153.418C327.619 144.499 336.182 144.202 338.208 151.68Z" fill="#00A954"/>
<path opacity="0.2" d="M338.208 151.68C339.984 158.237 330.365 171.427 330.365 171.427L317.76 164.362C317.76 164.362 320.122 158.938 323.002 153.418C327.619 144.499 336.182 144.202 338.208 151.68Z" fill="black"/>
<path opacity="0.2" d="M322.762 167.184L327.725 169.968L328.598 154.733C325.709 156.951 323.674 163.632 322.762 167.184Z" fill="black"/>
<path d="M329.914 146.746C329.914 146.746 320.102 168.576 325.824 209.222H364.483C365.098 203.29 363.062 174.336 370.426 146.381C366.185 145.552 361.894 145.004 357.581 144.739C352.11 144.422 346.626 144.422 341.155 144.739C337.363 145.124 333.605 145.795 329.914 146.746Z" fill="#00A954"/>
<path opacity="0.2" d="M329.914 146.746C329.914 146.746 320.102 168.576 325.824 209.222H364.483C365.098 203.29 363.062 174.336 370.426 146.381C366.185 145.552 361.894 145.004 357.581 144.739C352.11 144.422 346.626 144.422 341.155 144.739C337.363 145.124 333.605 145.795 329.914 146.746Z" fill="black"/>
<g style="mix-blend-mode:multiply">
<path d="M320.947 400.455C320.89 401.492 335.549 402.327 353.683 402.327C371.818 402.327 386.582 401.492 386.64 400.455C386.698 399.418 372.048 398.592 353.904 398.592C335.76 398.592 321.014 399.427 320.947 400.455Z" fill="#E8ECF1"/>
</g>
<path d="M346.753 373.212L339.896 375.867L345.802 391.125L352.659 388.47L346.753 373.212Z" fill="#E58A7B"/>
<path d="M377.328 393.072H370.099L367.45 376.339H374.678L377.328 393.072Z" fill="#E58A7B"/>
<path d="M369.6 392.237H377.722C377.862 392.237 377.999 392.288 378.106 392.379C378.213 392.47 378.284 392.597 378.307 392.736L379.354 399.158C379.376 399.32 379.363 399.484 379.316 399.639C379.269 399.795 379.189 399.939 379.081 400.061C378.974 400.183 378.841 400.28 378.693 400.347C378.544 400.413 378.383 400.446 378.221 400.445C375.389 400.397 374.026 400.224 370.454 400.224C368.256 400.224 363.734 400.454 360.682 400.454C357.629 400.454 357.427 397.459 358.685 397.181C364.33 395.962 366.518 394.301 368.4 392.688C368.732 392.397 369.158 392.236 369.6 392.237Z" fill="#263238"/>
<path d="M345.6 389.76L353.28 387.514C353.417 387.475 353.563 387.484 353.694 387.54C353.825 387.596 353.933 387.695 354 387.821L356.88 393.581C356.947 393.727 356.981 393.886 356.98 394.047C356.979 394.207 356.943 394.366 356.875 394.511C356.806 394.657 356.707 394.785 356.583 394.888C356.46 394.991 356.315 395.066 356.16 395.107C353.366 395.875 351.494 396.346 348 397.363C345.59 398.064 343.133 399.206 340.752 399.965C339.101 400.493 335.222 400.512 333.216 400.512C330.25 400.512 329.587 397.382 330.864 397.238C334.08 396.883 334.512 397.046 336.288 396.154C339.194 394.883 341.828 393.065 344.045 390.797C344.463 390.32 344.999 389.963 345.6 389.76Z" fill="#263238"/>
<path d="M289.757 183.811L281.808 180.48L278.534 189.293C281.792 189.789 285.107 189.789 288.365 189.293L289.757 183.811Z" fill="#E58A7B"/>
<path d="M275.894 180.25L275.683 186.106L278.534 189.274L281.808 180.461L275.894 180.25Z" fill="#E58A7B"/>
<path d="M347.693 374.508L340.815 377.164L343.861 385.054L350.739 382.398L347.693 374.508Z" fill="#CF6F64"/>
<path d="M374.678 376.339H367.45L368.822 384.97H376.051L374.678 376.339Z" fill="#CF6F64"/>
<path opacity="0.2" d="M324.595 198.23C324.739 199.968 324.902 201.744 325.114 203.568L353.856 194.237C358.345 192.906 362.246 190.086 364.915 186.24C365.03 183.677 365.174 180.979 365.395 178.166C365.491 176.803 365.606 175.402 365.731 173.981C365.856 172.56 366.029 170.986 366.211 169.469L324.595 198.23Z" fill="black"/>
<path d="M333.984 166.743L333.024 166.627C333.59 161.827 337.171 158.045 340.944 158.141V159.101C337.642 159.034 334.493 162.442 333.984 166.743Z" fill="white"/>
<path d="M339.101 175.603H338.938V174.643C342.24 174.768 345.341 171.321 345.85 167.03L346.81 167.145C346.301 171.84 342.835 175.603 339.101 175.603Z" fill="white"/>
<path d="M357.043 126.24C355.69 131.53 354.096 141.216 357.581 144.739C357.581 144.739 355.142 150.106 345.322 150.106C336.346 150.106 341.155 144.739 341.155 144.739C347.126 143.338 347.232 138.979 346.445 134.851L357.043 126.24Z" fill="#E58A7B"/>
<path d="M352.723 129.754L346.454 134.852C346.649 135.8 346.761 136.764 346.79 137.732C348.624 139.556 352.301 134.938 352.675 132.576C352.865 131.647 352.882 130.69 352.723 129.754Z" fill="#CF6F64"/>
<path d="M335.674 126.173C336.11 126.929 336.697 127.587 337.399 128.105C338.101 128.624 338.903 128.992 339.754 129.187C342.058 129.696 343.21 127.574 342.576 125.443C342.01 123.523 340.118 120.941 337.776 121.382C337.274 121.486 336.805 121.708 336.406 122.03C336.008 122.352 335.693 122.765 335.487 123.234C335.281 123.703 335.19 124.215 335.223 124.726C335.255 125.238 335.41 125.734 335.674 126.173Z" fill="#CF6F64"/>
<path d="M339.485 109.248C335.894 110.89 334.627 125.155 339.139 127.267C343.651 129.379 346.282 106.128 339.485 109.248Z" fill="#263238"/>
<path d="M358.138 118.282C357.274 125.444 357.178 129.658 353.338 133.325C352.148 134.542 350.645 135.407 348.994 135.823C347.344 136.24 345.611 136.192 343.986 135.685C342.361 135.179 340.908 134.233 339.786 132.953C338.665 131.672 337.92 130.107 337.632 128.429C336.47 121.997 338.074 111.37 345.254 108.519C346.763 107.853 348.422 107.603 350.06 107.795C351.698 107.987 353.255 108.613 354.569 109.609C355.883 110.605 356.907 111.934 357.535 113.459C358.162 114.984 358.37 116.649 358.138 118.282Z" fill="#E58A7B"/>
<path d="M346.339 112.954C351.658 111.6 355.565 110.678 354.163 115.104C352.31 121.018 350.083 126.739 353.069 126.998C354.893 127.162 362.957 123.744 361.93 120.278C361.037 117.264 364.81 116.438 365.482 114.912C367.968 109.382 360.854 110.112 362.122 106.752C363.389 103.392 356.362 97.9777 352.522 100.675C346.272 105.034 335.549 104.966 341.184 97.7953C345.226 92.6785 338.016 93.7249 338.016 93.7249C338.016 93.7249 342.374 96.3073 335.04 100.301C327.283 104.563 334.397 116.016 346.339 112.954Z" fill="#263238"/>
<path d="M360.96 126.173C359.91 127.692 358.333 128.767 356.534 129.187C354.163 129.696 353.251 127.574 354.144 125.443C354.941 123.523 357.13 120.941 359.395 121.382C361.661 121.824 362.179 124.291 360.96 126.173Z" fill="#E58A7B"/>
<path d="M325.824 209.223C325.824 209.223 319.334 267.303 318.826 289.344C318.307 312.269 340.819 383.799 340.819 383.799L352.339 378.999C352.339 378.999 338.899 313.642 340.819 291.13C342.854 266.583 351.264 209.261 351.264 209.261L325.824 209.223Z" fill="#00A954"/>
<path opacity="0.2" d="M341.952 225.168C336.778 235.901 340.262 257.126 343.066 269.702C344.131 260.822 345.398 251.184 346.598 242.265C346.483 228.557 345.418 217.968 341.952 225.168Z" fill="black"/>
<path d="M351.83 375.197C351.888 375.197 353.194 378.864 353.194 378.864L339.907 384.451L337.814 380.554L351.83 375.197Z" fill="#00A954"/>
<path d="M339.542 209.223C339.542 209.223 344.506 264.461 347.789 285.149C351.398 307.815 365.549 383.299 365.549 383.299H378.787C378.787 383.299 370.858 309.648 369.36 287.203C367.728 262.858 364.483 209.223 364.483 209.223H339.542Z" fill="#00A954"/>
<path d="M378.989 379.853C379.046 379.853 379.43 383.549 379.43 383.549H364.877L363.84 379.306L378.989 379.853Z" fill="#00A954"/>
<path opacity="0.2" d="M373.92 375.475C373.89 375.476 373.861 375.465 373.838 375.446C373.815 375.426 373.8 375.399 373.795 375.37C373.718 374.698 366.566 308.17 365.222 288.01C363.763 266.141 360.826 217.632 360.797 217.142C360.795 217.126 360.797 217.11 360.803 217.095C360.808 217.08 360.816 217.066 360.827 217.055C360.838 217.043 360.851 217.034 360.866 217.027C360.88 217.021 360.896 217.018 360.912 217.018C360.944 217.017 360.974 217.029 360.997 217.051C361.02 217.072 361.034 217.101 361.037 217.133C361.037 217.622 364.003 266.093 365.462 288C366.806 308.16 373.958 374.64 374.026 375.36C374.028 375.376 374.028 375.392 374.024 375.408C374.02 375.423 374.013 375.438 374.003 375.451C373.993 375.463 373.98 375.474 373.966 375.481C373.952 375.489 373.936 375.493 373.92 375.494V375.475Z" fill="black"/>
<path d="M347.155 120.279C347.155 120.864 346.79 121.335 346.406 121.335C346.022 121.335 345.744 120.864 345.782 120.279C345.821 119.693 346.147 119.223 346.531 119.223C346.915 119.223 347.194 119.703 347.155 120.279Z" fill="#263238"/>
<path d="M340.57 120.279C340.57 120.864 340.195 121.335 339.821 121.335C339.446 121.335 339.158 120.864 339.187 120.279C339.216 119.693 339.562 119.223 339.946 119.223C340.33 119.223 340.608 119.703 340.57 120.279Z" fill="#263238"/>
<path d="M342.643 120.576C341.842 122.364 340.809 124.039 339.571 125.559C340.531 126.519 342.326 126.077 342.326 126.077L342.643 120.576Z" fill="#DF5753"/>
<path d="M342.816 128.525C342.794 128.525 342.772 128.521 342.751 128.512C342.731 128.503 342.712 128.49 342.697 128.474C342.682 128.458 342.67 128.439 342.662 128.418C342.655 128.397 342.651 128.374 342.653 128.352C342.655 128.306 342.676 128.262 342.709 128.229C342.743 128.197 342.788 128.179 342.835 128.179C343.569 128.185 344.295 128.025 344.96 127.713C345.624 127.4 346.211 126.943 346.675 126.375C346.708 126.346 346.751 126.33 346.795 126.33C346.839 126.33 346.882 126.346 346.915 126.375C346.946 126.407 346.964 126.45 346.964 126.495C346.964 126.539 346.946 126.582 346.915 126.615C346.418 127.219 345.792 127.704 345.082 128.035C344.373 128.365 343.599 128.533 342.816 128.525Z" fill="#263238"/>
<path d="M348.326 118.512C348.28 118.536 348.229 118.548 348.178 118.548C348.126 118.548 348.075 118.536 348.029 118.512C347.67 118.28 347.261 118.135 346.836 118.09C346.41 118.045 345.981 118.101 345.581 118.253C345.542 118.272 345.499 118.284 345.456 118.287C345.412 118.289 345.369 118.283 345.328 118.269C345.286 118.255 345.249 118.232 345.216 118.203C345.184 118.174 345.158 118.139 345.139 118.099C345.104 118.014 345.103 117.918 345.137 117.832C345.171 117.746 345.237 117.676 345.322 117.638C345.823 117.433 346.367 117.352 346.907 117.403C347.447 117.453 347.967 117.632 348.422 117.926C348.459 117.951 348.491 117.983 348.515 118.021C348.539 118.058 348.556 118.1 348.564 118.143C348.572 118.187 348.571 118.232 348.562 118.276C348.552 118.319 348.534 118.36 348.509 118.397C348.46 118.452 348.397 118.492 348.326 118.512Z" fill="#263238"/>
<path d="M338.026 116.592C337.974 116.579 337.928 116.553 337.891 116.515C337.859 116.484 337.834 116.446 337.817 116.405C337.799 116.364 337.79 116.32 337.79 116.275C337.79 116.23 337.799 116.186 337.817 116.145C337.834 116.104 337.859 116.066 337.891 116.035C338.259 115.622 338.717 115.3 339.23 115.094C339.743 114.887 340.297 114.802 340.848 114.845C340.892 114.851 340.934 114.867 340.972 114.891C341.01 114.915 341.043 114.946 341.068 114.983C341.093 115.02 341.11 115.062 341.119 115.106C341.127 115.15 341.126 115.195 341.117 115.238C341.096 115.327 341.044 115.405 340.97 115.459C340.895 115.512 340.804 115.536 340.714 115.526C340.277 115.499 339.841 115.571 339.436 115.737C339.032 115.904 338.671 116.16 338.381 116.486C338.337 116.535 338.281 116.57 338.218 116.589C338.155 116.608 338.089 116.609 338.026 116.592Z" fill="#263238"/>
<path d="M374.141 155.827L364.157 153.168C364.157 153.168 354.365 177.274 350.899 178.838C346.195 180.989 334.282 188.438 329.213 191.962C328.934 193.162 329.155 196.339 329.789 197.213C338.429 195.638 354.97 189.274 358.426 186.038C366.307 178.656 374.141 155.827 374.141 155.827Z" fill="#E58A7B"/>
<path d="M367.171 393.504C366.684 393.543 366.199 393.41 365.798 393.13C365.675 393.018 365.582 392.876 365.53 392.718C365.478 392.56 365.468 392.391 365.501 392.227C365.507 392.125 365.54 392.027 365.598 391.942C365.655 391.858 365.735 391.79 365.827 391.747C366.634 391.335 368.89 392.765 369.149 392.928C369.177 392.946 369.199 392.972 369.211 393.003C369.224 393.034 369.225 393.069 369.216 393.101C369.208 393.134 369.191 393.165 369.168 393.19C369.144 393.216 369.114 393.234 369.082 393.245C368.456 393.399 367.815 393.486 367.171 393.504ZM366.211 392.007C366.138 391.99 366.063 391.99 365.99 392.007C365.954 392.025 365.923 392.054 365.903 392.09C365.882 392.126 365.873 392.167 365.875 392.208C365.85 392.32 365.854 392.436 365.888 392.546C365.921 392.655 365.983 392.754 366.067 392.832C366.442 393.168 367.382 393.207 368.621 392.967C367.883 392.481 367.053 392.154 366.182 392.007H366.211Z" fill="#00A954"/>
<path d="M369.034 393.245C369.009 393.253 368.982 393.253 368.957 393.245C368.237 392.842 366.883 391.258 367.085 390.451C367.115 390.324 367.187 390.21 367.29 390.128C367.393 390.046 367.52 390.001 367.651 390C367.78 389.983 367.911 389.994 368.035 390.032C368.16 390.07 368.274 390.134 368.371 390.221C369.168 390.903 369.216 392.995 369.216 393.101C369.221 393.133 369.215 393.165 369.199 393.192C369.183 393.22 369.159 393.242 369.13 393.255C369.097 393.261 369.064 393.258 369.034 393.245ZM367.747 390.317H367.68C367.459 390.317 367.43 390.442 367.421 390.49C367.306 390.96 368.16 392.16 368.87 392.727C368.867 391.916 368.616 391.125 368.15 390.461C368.039 390.364 367.895 390.312 367.747 390.317Z" fill="#00A954"/>
<path d="M341.683 392.304C341.096 392.509 340.456 392.509 339.869 392.304C339.735 392.232 339.622 392.127 339.54 392C339.458 391.872 339.409 391.726 339.398 391.574C339.386 391.48 339.398 391.383 339.434 391.294C339.469 391.205 339.526 391.126 339.6 391.066C340.368 390.374 343.507 391.066 343.862 391.2C343.896 391.209 343.926 391.229 343.947 391.257C343.968 391.285 343.979 391.319 343.978 391.354C343.979 391.39 343.97 391.425 343.951 391.456C343.932 391.487 343.905 391.511 343.872 391.526C343.165 391.846 342.433 392.106 341.683 392.304ZM340.118 391.162C340.009 391.184 339.906 391.233 339.821 391.306C339.79 391.329 339.767 391.36 339.753 391.395C339.74 391.431 339.736 391.47 339.744 391.507C339.75 391.608 339.782 391.706 339.835 391.791C339.889 391.877 339.963 391.947 340.051 391.997C340.56 392.266 341.741 392.054 343.267 391.411C342.239 391.152 341.175 391.068 340.118 391.162Z" fill="#00A954"/>
<path d="M343.843 391.526H343.766C342.806 391.353 340.886 390.249 340.829 389.424C340.829 389.232 340.915 388.963 341.376 388.81C341.532 388.754 341.697 388.731 341.862 388.74C342.027 388.75 342.188 388.793 342.336 388.867C343.373 389.376 343.92 391.219 343.949 391.305C343.956 391.334 343.955 391.365 343.946 391.393C343.938 391.422 343.922 391.448 343.901 391.469C343.886 391.492 343.867 391.512 343.843 391.526ZM341.568 389.097H341.472C341.174 389.203 341.174 389.328 341.174 389.366C341.174 389.865 342.566 390.777 343.536 391.085C343.313 390.314 342.84 389.638 342.192 389.165C341.999 389.067 341.777 389.043 341.568 389.097Z" fill="#00A954"/>
<path d="M330.029 191.396L320.016 196.004L318.854 198.884L322.55 201.37C322.55 201.37 329.462 200.621 331.43 196.176L330.029 191.396Z" fill="#E58A7B"/>
<path d="M330.451 197.376C330.227 195.452 329.592 193.599 328.589 191.942L330.173 190.752C331.364 192.661 332.124 194.807 332.4 197.04L330.451 197.376Z" fill="#263238"/>
<path d="M332.16 192.759C332.372 193.092 332.476 193.482 332.458 193.876C332.44 194.27 332.301 194.649 332.06 194.961C331.819 195.274 331.488 195.504 331.111 195.622C330.735 195.739 330.331 195.738 329.955 195.618C329.579 195.497 329.25 195.265 329.011 194.95C328.772 194.636 328.636 194.256 328.621 193.862C328.606 193.468 328.713 193.078 328.927 192.747C329.141 192.416 329.452 192.158 329.818 192.01C330.228 191.801 330.704 191.762 331.143 191.902C331.581 192.043 331.947 192.35 332.16 192.759Z" fill="#263238"/>
<path d="M313.248 199.728L314.582 201.072L323.568 197.232L320.016 196.003L313.248 199.728Z" fill="#E58A7B"/>
<path opacity="0.2" d="M351.83 375.197C351.888 375.197 353.194 378.864 353.194 378.864L339.907 384.451L337.814 380.554L351.83 375.197Z" fill="black"/>
<path opacity="0.2" d="M378.989 379.853C379.046 379.853 379.43 383.549 379.43 383.549H364.877L363.84 379.306L378.989 379.853Z" fill="black"/>
<path d="M376.742 153.062C379.382 161.578 369.062 173.222 369.062 173.222L354.806 167.405C356.496 162.483 358.444 157.654 360.643 152.938C365.021 143.501 374.074 144.47 376.742 153.062Z" fill="#00A954"/>
<path opacity="0.2" d="M376.742 153.062C379.382 161.578 369.062 173.222 369.062 173.222L354.806 167.405C356.496 162.483 358.444 157.654 360.643 152.938C365.021 143.501 374.074 144.47 376.742 153.062Z" fill="black"/>
<path d="M235.085 67.7471H228.95V68.7359H235.085V67.7471Z" fill="#00A954"/>
<path d="M314.494 106.883L313.752 123.359L314.74 123.403L315.482 106.927L314.494 106.883Z" fill="#00A954"/>
<path d="M312.586 72.1821H199.306L188.765 308.073H302.045L312.586 72.1821Z" fill="#00A954"/>
<path opacity="0.56" d="M309.206 75.4272H195.926L185.386 311.318H298.666L309.206 75.4272Z" fill="#FAFAFA"/>
<path opacity="0.07" d="M305.827 78.6621H192.547L181.997 314.553H295.277L305.827 78.6621Z" fill="#FFA200"/>
<path d="M292.934 181.545H196.243L195.437 199.593H292.128L292.934 181.545Z" fill="white"/>
<path d="M249.418 168.375H196.829L196.474 176.448H249.062L249.418 168.375Z" fill="#00A954"/>
<path d="M290.755 230.256H194.064L193.258 248.304H289.949L290.755 230.256Z" fill="white"/>
<path opacity="0.47" d="M273.024 272.678H208.003L207.034 294.307H272.054L273.024 272.678Z" fill="#00A954"/>
<path d="M268.675 297.667H203.654C203.626 297.674 203.596 297.674 203.568 297.667C203.558 297.639 203.558 297.609 203.568 297.581L204.528 275.942C204.528 275.928 204.531 275.913 204.537 275.899C204.543 275.886 204.551 275.874 204.562 275.864C204.573 275.854 204.586 275.846 204.6 275.842C204.614 275.837 204.629 275.835 204.643 275.837H269.664C269.676 275.831 269.689 275.828 269.702 275.828C269.716 275.828 269.729 275.831 269.741 275.837C269.748 275.848 269.751 275.862 269.751 275.875C269.751 275.889 269.748 275.902 269.741 275.913L268.8 297.6C268.788 297.622 268.77 297.641 268.748 297.653C268.726 297.665 268.7 297.67 268.675 297.667ZM203.77 297.437H268.56L269.52 276.029H204.73L203.77 297.437Z" fill="white"/>
<path d="M238.061 217.084H194.65L194.294 225.168H237.696L238.061 217.084Z" fill="#00A954"/>
<path d="M271.786 123.245C271.537 128.497 269.67 133.544 266.438 137.693C264.046 140.826 260.968 143.37 257.44 145.129C253.913 146.888 250.028 147.815 246.086 147.84C242.901 147.864 239.744 147.236 236.81 145.994C233.877 144.752 231.228 142.923 229.029 140.619C226.829 138.314 225.124 135.584 224.019 132.596C222.914 129.608 222.433 126.426 222.605 123.245C222.942 116.644 225.789 110.421 230.562 105.849C235.336 101.278 241.675 98.702 248.285 98.6495C251.473 98.6197 254.633 99.244 257.57 100.484C260.507 101.724 263.159 103.553 265.362 105.858C267.564 108.163 269.271 110.895 270.375 113.885C271.48 116.876 271.96 120.061 271.786 123.245Z" fill="white"/>
<path d="M274.099 103.795C274.037 105.191 273.54 106.534 272.678 107.635C272.041 108.467 271.222 109.143 270.283 109.61C269.345 110.078 268.312 110.325 267.264 110.332C266.248 110.339 265.247 110.096 264.346 109.626C263.446 109.156 262.674 108.472 262.099 107.635C261.337 106.504 260.96 105.157 261.024 103.795C261.117 102.042 261.875 100.391 263.143 99.1781C264.411 97.9651 266.095 97.2815 267.85 97.2669C268.696 97.2591 269.536 97.4248 270.316 97.7538C271.096 98.0828 271.8 98.568 272.386 99.1796C272.971 99.7912 273.425 100.516 273.72 101.31C274.015 102.104 274.144 102.949 274.099 103.795Z" fill="#00A954"/>
<path d="M206.659 190.57C206.613 191.343 206.275 192.07 205.714 192.605C205.153 193.139 204.41 193.441 203.635 193.45C203.261 193.454 202.89 193.382 202.545 193.237C202.2 193.092 201.888 192.878 201.629 192.609C201.37 192.339 201.169 192.018 201.038 191.668C200.908 191.317 200.851 190.943 200.87 190.57C200.912 189.794 201.248 189.064 201.81 188.529C202.373 187.994 203.118 187.693 203.894 187.69C204.268 187.686 204.639 187.76 204.983 187.905C205.327 188.05 205.639 188.264 205.898 188.534C206.156 188.803 206.357 189.123 206.488 189.473C206.619 189.823 206.677 190.196 206.659 190.57Z" fill="#263238"/>
<path d="M219.6 190.57C219.556 191.344 219.219 192.073 218.657 192.608C218.096 193.143 217.352 193.444 216.576 193.45C216.203 193.453 215.833 193.379 215.489 193.234C215.145 193.089 214.834 192.875 214.576 192.605C214.318 192.335 214.118 192.016 213.988 191.665C213.858 191.315 213.801 190.942 213.821 190.57C213.862 189.796 214.197 189.068 214.757 188.532C215.317 187.997 216.061 187.696 216.835 187.69C217.209 187.685 217.58 187.758 217.926 187.902C218.271 188.047 218.582 188.261 218.842 188.531C219.101 188.801 219.302 189.121 219.432 189.472C219.563 189.822 219.62 190.196 219.6 190.57Z" fill="#263238"/>
<path d="M232.55 190.57C232.507 191.344 232.17 192.073 231.608 192.608C231.046 193.143 230.302 193.444 229.526 193.45C229.153 193.453 228.782 193.379 228.438 193.234C228.093 193.089 227.782 192.875 227.523 192.606C227.264 192.336 227.063 192.016 226.932 191.666C226.801 191.316 226.743 190.943 226.762 190.57C226.805 189.795 227.142 189.067 227.704 188.532C228.266 187.997 229.01 187.696 229.786 187.69C230.16 187.685 230.531 187.758 230.876 187.902C231.221 188.047 231.533 188.261 231.792 188.531C232.051 188.801 232.252 189.121 232.383 189.472C232.513 189.822 232.57 190.196 232.55 190.57Z" fill="#263238"/>
<path d="M204.48 239.28C204.434 240.054 204.096 240.781 203.535 241.315C202.974 241.85 202.231 242.152 201.456 242.16C201.082 242.163 200.712 242.09 200.367 241.945C200.023 241.799 199.712 241.586 199.453 241.316C199.194 241.046 198.993 240.727 198.862 240.377C198.731 240.026 198.673 239.653 198.691 239.28C198.735 238.506 199.072 237.777 199.634 237.242C200.195 236.707 200.94 236.406 201.715 236.4C202.089 236.397 202.459 236.47 202.804 236.615C203.148 236.761 203.46 236.974 203.718 237.244C203.977 237.514 204.178 237.833 204.309 238.183C204.44 238.534 204.498 238.907 204.48 239.28Z" fill="#263238"/>
<path d="M217.421 239.28C217.377 240.053 217.041 240.78 216.482 241.315C215.922 241.849 215.18 242.152 214.406 242.16C214.032 242.164 213.661 242.092 213.316 241.947C212.971 241.803 212.659 241.589 212.4 241.319C212.141 241.049 211.94 240.729 211.809 240.378C211.679 240.027 211.622 239.654 211.642 239.28C211.685 238.506 212.022 237.777 212.584 237.242C213.146 236.707 213.89 236.406 214.666 236.4C215.039 236.397 215.409 236.47 215.753 236.615C216.097 236.761 216.408 236.975 216.666 237.245C216.924 237.514 217.124 237.834 217.254 238.184C217.384 238.534 217.44 238.907 217.421 239.28Z" fill="#263238"/>
<path d="M230.4 239.28C230.356 240.054 230.019 240.783 229.457 241.318C228.896 241.853 228.152 242.154 227.376 242.16C227.003 242.162 226.633 242.088 226.289 241.942C225.945 241.796 225.635 241.582 225.376 241.313C225.117 241.044 224.916 240.725 224.785 240.375C224.653 240.026 224.594 239.653 224.611 239.28C224.657 238.507 224.995 237.779 225.556 237.245C226.117 236.71 226.86 236.408 227.635 236.4C228.009 236.396 228.38 236.468 228.726 236.613C229.071 236.757 229.382 236.971 229.642 237.241C229.901 237.511 230.102 237.831 230.232 238.182C230.363 238.533 230.42 238.906 230.4 239.28Z" fill="#263238"/>
<path d="M243.322 239.28C243.275 240.054 242.938 240.781 242.377 241.315C241.815 241.85 241.073 242.152 240.298 242.16C239.924 242.162 239.554 242.087 239.211 241.942C238.867 241.796 238.556 241.582 238.298 241.313C238.039 241.044 237.838 240.724 237.706 240.375C237.575 240.026 237.516 239.653 237.533 239.28C237.579 238.506 237.917 237.779 238.478 237.245C239.039 236.71 239.782 236.408 240.557 236.4C240.931 236.397 241.301 236.47 241.645 236.615C241.99 236.76 242.301 236.974 242.56 237.244C242.819 237.514 243.02 237.833 243.151 238.183C243.282 238.534 243.34 238.907 243.322 239.28Z" fill="#263238"/>
<path d="M256.32 239.28C256.274 240.054 255.936 240.781 255.375 241.315C254.814 241.85 254.071 242.152 253.296 242.16C252.922 242.164 252.551 242.092 252.206 241.947C251.861 241.803 251.549 241.589 251.29 241.319C251.031 241.049 250.83 240.729 250.699 240.378C250.569 240.027 250.511 239.654 250.531 239.28C250.575 238.506 250.912 237.777 251.474 237.242C252.035 236.707 252.78 236.406 253.555 236.4C253.929 236.397 254.299 236.47 254.644 236.615C254.988 236.76 255.3 236.974 255.558 237.244C255.817 237.514 256.018 237.833 256.149 238.183C256.28 238.534 256.338 238.907 256.32 239.28Z" fill="#263238"/>
<path d="M254.355 121.964C258.373 118.035 258.587 111.736 254.831 107.896C251.076 104.056 244.775 104.129 240.757 108.058C236.739 111.988 236.525 118.286 240.281 122.126C244.036 125.966 250.337 125.893 254.355 121.964Z" fill="#00A954"/>
<path d="M266.438 137.693C264.047 140.826 260.968 143.37 257.44 145.129C253.913 146.888 250.028 147.815 246.086 147.84C242.264 147.872 238.492 146.964 235.103 145.194C231.715 143.424 228.814 140.848 226.656 137.693C231.322 133.046 238.704 130.013 246.883 130.013C255.062 130.013 262.186 133.046 266.438 137.693Z" fill="#00A954"/>
<path opacity="0.1" d="M254.355 121.964C258.373 118.035 258.587 111.736 254.831 107.896C251.076 104.056 244.775 104.129 240.757 108.058C236.739 111.988 236.525 118.286 240.281 122.126C244.036 125.966 250.337 125.893 254.355 121.964Z" fill="white"/>
<path opacity="0.1" d="M266.438 137.693C264.047 140.826 260.968 143.37 257.44 145.129C253.913 146.888 250.028 147.815 246.086 147.84C242.264 147.872 238.492 146.964 235.103 145.194C231.715 143.424 228.814 140.848 226.656 137.693C231.322 133.046 238.704 130.013 246.883 130.013C255.062 130.013 262.186 133.046 266.438 137.693Z" fill="white"/>
<path d="M125.194 203.942C124.282 205.939 123.322 208.138 122.486 210.269C121.651 212.4 120.797 214.598 120.058 216.787C118.548 221.101 117.399 225.532 116.621 230.035L116.41 231.446C116.389 231.689 116.412 231.932 116.477 232.166C116.703 232.962 117.06 233.715 117.533 234.394C118.766 236.151 120.196 237.762 121.795 239.194C123.482 240.762 125.25 242.24 127.094 243.619C128.938 245.04 130.877 246.422 132.787 247.728L130.992 251.098C126.43 249.11 122.1 246.628 118.08 243.696C115.935 242.132 113.999 240.299 112.32 238.243C111.325 237.019 110.548 235.633 110.026 234.144C109.722 233.214 109.566 232.242 109.565 231.264C109.565 231.034 109.565 230.698 109.565 230.534V230.064L109.661 229.104C110.211 224.103 111.263 219.169 112.8 214.378C113.549 212.016 114.346 209.664 115.258 207.37C116.17 205.075 117.11 202.829 118.272 200.496L125.194 203.942Z" fill="#E58A7B"/>
<path d="M131.434 247.133L138.221 243.696L136.464 251.145C136.464 251.145 131.808 252.451 129.648 250.185L131.434 247.133Z" fill="#E58A7B"/>
<path d="M144.432 244.915L142.627 251.078L136.464 251.145L138.221 243.696L144.432 244.915Z" fill="#E58A7B"/>
<path d="M154.013 168C154.376 169.33 154.881 170.618 155.52 171.84C155.333 172.052 155.093 172.209 154.824 172.295C154.556 172.381 154.269 172.393 153.994 172.33L154.013 168Z" fill="#DF5753"/>
<path d="M153.811 168.058C154.209 168.058 154.531 167.563 154.531 166.954C154.531 166.344 154.209 165.85 153.811 165.85C153.414 165.85 153.091 166.344 153.091 166.954C153.091 167.563 153.414 168.058 153.811 168.058Z" fill="#263238"/>
<path d="M153.6 165.888L155.059 165.475C155.059 165.475 154.349 166.608 153.6 165.888Z" fill="#263238"/>
<path d="M135.264 175.046C136.138 179.51 137.011 187.699 133.882 190.685C133.882 190.685 135.11 195.216 143.414 195.216C152.544 195.216 147.773 190.685 147.773 190.685C142.79 189.494 142.915 185.798 143.789 182.323L135.264 175.046Z" fill="#E58A7B"/>
<path d="M132.835 164.87C133.296 172.329 133.334 175.497 137.098 179.328C142.771 185.088 151.834 182.899 153.61 175.488C155.213 168.768 154.195 157.709 146.89 154.742C145.286 154.082 143.54 153.841 141.818 154.043C140.095 154.245 138.453 154.884 137.046 155.898C135.639 156.912 134.513 158.268 133.777 159.838C133.04 161.408 132.716 163.14 132.835 164.87Z" fill="#E58A7B"/>
<path d="M133.574 156.48C129.83 157.843 124.838 156.825 126.797 168.374C128.87 180.605 125.683 184.627 125.683 184.627C125.683 184.627 139.882 187.651 154.378 184.445C154.378 184.445 149.952 176.707 151.19 171.005C152.774 163.805 151.526 161.145 151.526 161.145C151.526 161.145 138.835 154.56 133.574 156.48Z" fill="#263238"/>
<path d="M149.414 168.758C149.418 170.176 149.824 171.565 150.586 172.761C151.603 174.317 152.803 173.721 153.101 172.07C153.37 170.621 153.168 168.057 151.872 167.059C150.576 166.061 149.434 167.04 149.414 168.758Z" fill="#E58A7B"/>
<path d="M130.32 157.738C129.245 154.714 134.371 150.058 145.219 151.978C156.067 153.898 156.538 162.931 156.538 162.931L154.349 160.32L154.445 163.066L143.299 165.206L130.32 157.738Z" fill="#263238"/>
<path d="M131.242 191.194C131.178 190.755 131.287 190.309 131.547 189.951C131.807 189.592 132.197 189.349 132.634 189.274C136.013 188.717 143.693 187.584 147.552 188.122C150.432 188.525 151.181 190.195 151.306 191.568C151.325 191.808 151.293 192.05 151.211 192.277C151.13 192.504 151 192.711 150.832 192.884C150.664 193.056 150.461 193.191 150.236 193.279C150.011 193.366 149.77 193.405 149.53 193.392L132.845 192.643C132.451 192.623 132.077 192.468 131.785 192.204C131.493 191.94 131.301 191.583 131.242 191.194Z" fill="#00A954"/>
<path opacity="0.6" d="M131.242 191.194C131.178 190.755 131.287 190.309 131.547 189.951C131.807 189.592 132.197 189.349 132.634 189.274C136.013 188.717 143.693 187.584 147.552 188.122C150.432 188.525 151.181 190.195 151.306 191.568C151.325 191.808 151.293 192.05 151.211 192.277C151.13 192.504 151 192.711 150.832 192.884C150.664 193.056 150.461 193.191 150.236 193.279C150.011 193.366 149.77 193.405 149.53 193.392L132.845 192.643C132.451 192.623 132.077 192.468 131.785 192.204C131.493 191.94 131.301 191.583 131.242 191.194Z" fill="black"/>
<path d="M140.89 358.906L147.082 363.207L157.44 349.162L151.248 344.871L140.89 358.906Z" fill="#E58A7B"/>
<path d="M126.451 358.627L132.989 362.352L142.157 347.501L135.619 343.776L126.451 358.627Z" fill="#E58A7B"/>
<path d="M157.43 349.162L152.093 356.4L145.901 352.109L151.238 344.871L157.43 349.162Z" fill="#CF6F64"/>
<path d="M135.61 343.776L142.157 347.51L137.434 355.161L130.886 351.427L135.61 343.776Z" fill="#CF6F64"/>
<path d="M146.112 238.08C146.112 238.08 170.285 268.541 165.744 297.677C162.086 321.206 140.87 353.069 140.87 353.069L130.896 348.115C137.927 334.027 143.926 319.448 148.848 304.493C150.366 299.85 150.809 294.922 150.144 290.083C149.478 285.243 147.722 280.618 145.008 276.557C132.758 258.672 113.136 269.318 126.336 238.08H146.112Z" fill="#00A954"/>
<path opacity="0.6" d="M146.112 238.08C146.112 238.08 170.285 268.541 165.744 297.677C162.086 321.206 140.87 353.069 140.87 353.069L130.896 348.115C137.927 334.027 143.926 319.448 148.848 304.493C150.366 299.85 150.809 294.922 150.144 290.083C149.478 285.243 147.722 280.618 145.008 276.557C132.758 258.672 113.136 269.318 126.336 238.08H146.112Z" fill="black"/>
<path opacity="0.4" d="M157.968 257.645L154.454 254.15C154.454 254.429 161.261 296.448 163.171 308.256C164.299 304.807 165.162 301.276 165.754 297.696C168 283.402 163.306 268.8 157.968 257.645Z" fill="black"/>
<path d="M156.902 238.08C156.902 238.08 186.01 276.365 186.835 299.318C187.517 318.518 155.155 355.718 155.155 355.718L145.747 349.632C145.747 349.632 164.688 323.213 169.459 301.632C167.616 280.243 128.64 238.08 128.64 238.08H156.902Z" fill="#00A954"/>
<path opacity="0.6" d="M156.902 238.08C156.902 238.08 186.01 276.365 186.835 299.318C187.517 318.518 155.155 355.718 155.155 355.718L145.747 349.632C145.747 349.632 164.688 323.213 169.459 301.632C167.616 280.243 128.64 238.08 128.64 238.08H156.902Z" fill="black"/>
<path d="M120.893 192.394C117.782 193.133 114.797 204.442 114.797 204.442L126.96 212.563C126.96 212.563 131.011 203.616 129.59 199.699C128.122 195.619 124.8 191.463 120.893 192.394Z" fill="#00A954"/>
<path opacity="0.2" d="M123.274 199.68L122.429 209.539L126.95 212.573C128.199 209.762 129.123 206.818 129.706 203.799L123.274 199.68Z" fill="black"/>
<path d="M160.502 192.614C160.502 192.614 164.093 193.872 156.902 238.07H126.317C126.835 225.59 126.845 217.91 120.893 192.394C125.175 191.511 129.516 190.94 133.882 190.685C138.506 190.353 143.148 190.353 147.773 190.685C153.744 191.232 160.502 192.614 160.502 192.614Z" fill="#00A954"/>
<path d="M163.613 199.68C164.304 201.6 165.034 203.664 165.802 205.651C166.57 207.638 167.299 209.683 168.077 211.699L170.429 217.728L171.024 219.235L171.331 219.984L171.475 220.358C171.475 220.425 171.475 220.425 171.475 220.416C171.3 220.169 171.07 219.965 170.803 219.821C170.423 219.597 169.995 219.469 169.555 219.446C169.19 219.435 168.826 219.504 168.49 219.648C168.048 219.849 168.048 219.936 168.058 219.926C168.137 219.862 168.208 219.788 168.269 219.705C168.8 219.008 169.26 218.258 169.642 217.469C170.093 216.585 170.525 215.645 170.957 214.694C171.802 212.774 172.579 210.787 173.357 208.781C174.134 206.774 174.874 204.749 175.594 202.704L177.782 196.579L181.478 197.539C180.749 201.917 179.808 206.179 178.675 210.518C178.128 212.678 177.485 214.819 176.755 216.979C176.39 218.064 175.987 219.139 175.526 220.243C175.046 221.441 174.455 222.592 173.76 223.68C173.505 224.046 173.222 224.393 172.915 224.717C172.425 225.246 171.83 225.668 171.168 225.955C170.581 226.207 169.944 226.325 169.306 226.301C168.59 226.274 167.893 226.066 167.28 225.696C166.557 225.245 165.957 224.621 165.533 223.881C165.389 223.632 165.264 223.382 165.178 223.2L164.995 222.835L164.63 222.086L163.901 220.598C162.941 218.601 161.981 216.585 161.146 214.56C160.31 212.534 159.427 210.48 158.602 208.416C157.776 206.352 157.037 204.288 156.336 202.061L163.613 199.68Z" fill="#E58A7B"/>
<path d="M160.502 192.614C164.179 193.488 168.317 204.355 168.317 204.355L157.382 213.658C157.382 213.658 150.307 201.811 151.738 197.904C153.226 193.834 155.702 191.472 160.502 192.614Z" fill="#00A954"/>
<path d="M179.52 193.142L183.36 189.936L186.029 194.093L184.061 197.558C184.061 197.558 180.931 200.438 178.166 198.97C177.728 197.983 177.622 196.881 177.867 195.829C178.111 194.778 178.691 193.834 179.52 193.142Z" fill="#E58A7B"/>
<path d="M190.291 189.946L190.003 190.992L183.926 192.01L183.331 189.936L190.291 189.946Z" fill="#E58A7B"/>
<path d="M155.904 356.208L144.941 349.123L146.909 345.706L159.226 353.28L155.904 356.208Z" fill="#00A954"/>
<path d="M137.28 361.853C136.318 361.736 135.394 361.408 134.573 360.893C134.539 360.881 134.51 360.859 134.489 360.83C134.468 360.801 134.457 360.766 134.457 360.73C134.457 360.694 134.468 360.659 134.489 360.63C134.51 360.6 134.539 360.578 134.573 360.567C134.87 360.471 137.453 359.674 138.202 360.288C138.286 360.358 138.35 360.449 138.387 360.552C138.424 360.655 138.433 360.766 138.413 360.874C138.399 361.047 138.342 361.213 138.246 361.358C138.151 361.502 138.02 361.62 137.866 361.699C137.686 361.798 137.485 361.85 137.28 361.853ZM135.12 360.797C136.32 361.411 137.28 361.632 137.741 361.402C137.841 361.346 137.926 361.266 137.986 361.168C138.047 361.071 138.081 360.96 138.086 360.845C138.086 360.691 138.086 360.624 138 360.586C137.597 360.259 136.157 360.509 135.101 360.797H135.12Z" fill="#263238"/>
<path d="M134.64 360.96C134.589 360.959 134.541 360.938 134.506 360.902C134.491 360.876 134.484 360.846 134.484 360.816C134.484 360.786 134.491 360.756 134.506 360.729C134.506 360.643 135.13 358.56 136.109 358.09C136.234 358.032 136.37 358.003 136.507 358.003C136.645 358.003 136.781 358.032 136.906 358.09C137.04 358.132 137.157 358.219 137.237 358.335C137.317 358.452 137.356 358.592 137.347 358.733C137.28 359.597 135.523 360.787 134.717 360.989L134.64 360.96ZM136.502 358.339C136.409 358.342 136.317 358.365 136.234 358.406C135.638 358.694 135.149 359.817 134.909 360.499C135.754 360.144 136.915 359.203 136.954 358.675C136.954 358.589 136.954 358.483 136.733 358.387C136.661 358.348 136.583 358.322 136.502 358.31V358.339Z" fill="#263238"/>
<path d="M150.979 366C149.894 366 148.387 364.608 147.562 363.753C147.541 363.724 147.529 363.689 147.529 363.653C147.529 363.616 147.541 363.581 147.562 363.552C147.581 363.521 147.608 363.496 147.64 363.479C147.672 363.462 147.708 363.454 147.744 363.456C148.128 363.456 151.459 363.955 151.93 364.896C151.979 364.98 152.006 365.076 152.006 365.174C152.006 365.272 151.979 365.368 151.93 365.453C151.859 365.599 151.752 365.725 151.62 365.819C151.487 365.913 151.333 365.972 151.171 365.99L150.979 366ZM148.195 363.888C149.405 365.059 150.47 365.712 151.075 365.635C151.181 365.621 151.282 365.582 151.369 365.52C151.456 365.458 151.527 365.375 151.574 365.28C151.596 365.247 151.607 365.209 151.607 365.169C151.607 365.13 151.596 365.092 151.574 365.059C151.325 364.541 149.549 364.099 148.195 363.888Z" fill="#263238"/>
<path d="M148.301 363.84C148.085 363.846 147.87 363.83 147.658 363.792C147.628 363.787 147.6 363.775 147.576 363.757C147.553 363.738 147.535 363.714 147.523 363.686C147.509 363.658 147.501 363.627 147.501 363.595C147.501 363.563 147.509 363.532 147.523 363.504C147.581 363.437 148.877 361.872 150.106 361.766C150.453 361.739 150.798 361.849 151.066 362.073C151.44 362.4 151.421 362.688 151.325 362.87C151.085 363.523 149.424 363.84 148.301 363.84ZM148.051 363.485C149.126 363.542 150.845 363.187 151.066 362.717C151.066 362.717 151.142 362.563 150.893 362.352C150.793 362.265 150.677 362.2 150.552 362.161C150.426 362.121 150.294 362.108 150.163 362.121C149.335 362.352 148.598 362.832 148.051 363.494V363.485Z" fill="#263238"/>
<path d="M134.899 359.923L126.758 357.619C126.618 357.577 126.467 357.588 126.334 357.65C126.201 357.712 126.096 357.82 126.038 357.955L123.293 364.128C123.228 364.286 123.198 364.456 123.204 364.627C123.21 364.797 123.252 364.965 123.327 365.118C123.402 365.271 123.509 365.407 123.641 365.516C123.772 365.625 123.925 365.705 124.09 365.751C126.97 366.499 128.352 366.711 131.933 367.738C134.141 368.352 137.29 369.495 140.333 370.359C143.376 371.223 144.394 368.256 143.213 367.623C137.875 364.8 137.453 362.823 135.994 360.711C135.732 360.328 135.345 360.049 134.899 359.923Z" fill="#00A954"/>
<path d="M147.782 362.63L140.832 357.83C140.714 357.745 140.569 357.705 140.424 357.719C140.279 357.733 140.144 357.8 140.045 357.907L135.437 362.861C135.325 362.989 135.241 363.139 135.191 363.302C135.141 363.465 135.127 363.637 135.149 363.806C135.171 363.975 135.228 364.137 135.318 364.282C135.407 364.427 135.526 364.551 135.667 364.646C138.115 366.288 139.382 366.95 142.445 369.072C144.365 370.378 148.08 373.277 150.672 375.082C153.264 376.886 155.194 374.41 154.272 373.43C150.144 369.024 149.242 366.259 148.56 363.754C148.442 363.299 148.166 362.901 147.782 362.63Z" fill="#00A954"/>
<path d="M142.147 353.703L129.619 347.472L130.915 344.074L144.298 350.64L142.147 353.703Z" fill="#00A954"/>
<path d="M125.856 236.275L124.8 239.04C124.694 239.251 124.944 239.472 125.299 239.472H157.056C157.334 239.472 157.565 239.338 157.584 239.165L157.853 236.419C157.853 236.237 157.632 236.074 157.334 236.074H126.355C126.262 236.065 126.168 236.079 126.081 236.114C125.994 236.149 125.917 236.204 125.856 236.275Z" fill="#00A954"/>
<path opacity="0.4" d="M125.856 236.275L124.8 239.04C124.694 239.251 124.944 239.472 125.299 239.472H157.056C157.334 239.472 157.565 239.338 157.584 239.165L157.853 236.419C157.853 236.237 157.632 236.074 157.334 236.074H126.355C126.262 236.065 126.168 236.079 126.081 236.114C125.994 236.149 125.917 236.204 125.856 236.275Z" fill="white"/>
<path d="M130.858 239.741H130.022C129.859 239.741 129.734 239.654 129.744 239.549L130.138 235.987C130.138 235.891 130.291 235.805 130.454 235.805H131.29C131.453 235.805 131.578 235.891 131.568 235.987L131.174 239.549C131.165 239.654 131.021 239.741 130.858 239.741Z" fill="#00A954"/>
<path d="M150.442 239.741H149.616C149.453 239.741 149.328 239.654 149.338 239.549L149.722 235.987C149.722 235.891 149.885 235.805 150.048 235.805H150.874C151.037 235.805 151.171 235.891 151.152 235.987L150.768 239.549C150.72 239.654 150.614 239.741 150.442 239.741Z" fill="#00A954"/>
<g style="mix-blend-mode:multiply">
<path d="M130.128 402.317C144.332 402.317 155.846 401.483 155.846 400.455C155.846 399.426 144.332 398.592 130.128 398.592C115.924 398.592 104.41 399.426 104.41 400.455C104.41 401.483 115.924 402.317 130.128 402.317Z" fill="#F5F5F5"/>
</g>
<path d="M145.795 397.824C141.245 396.499 136.195 394.8 133.142 393.024C133.056 392.967 132.96 392.938 132.874 392.89V372.288H142.08C142.779 372.247 143.436 371.94 143.916 371.431C144.396 370.921 144.663 370.248 144.663 369.547C144.663 368.847 144.396 368.174 143.916 367.664C143.436 367.155 142.779 366.848 142.08 366.807H132.922V272.899H127.392V366.807H118.243C117.87 366.785 117.495 366.839 117.144 366.967C116.792 367.094 116.47 367.293 116.198 367.549C115.925 367.806 115.708 368.116 115.56 368.459C115.412 368.803 115.335 369.173 115.335 369.547C115.335 369.922 115.412 370.292 115.56 370.636C115.708 370.979 115.925 371.289 116.198 371.545C116.47 371.802 116.792 372 117.144 372.128C117.495 372.256 117.87 372.31 118.243 372.288H127.392V392.861C127.306 392.861 127.219 392.938 127.133 392.995C124.032 394.8 119.021 396.499 114.47 397.795C114.163 397.888 113.899 398.088 113.726 398.359C113.554 398.63 113.484 398.953 113.529 399.271C113.574 399.589 113.732 399.88 113.973 400.092C114.214 400.304 114.524 400.422 114.845 400.426H145.421C145.728 400.405 146.018 400.279 146.244 400.07C146.469 399.861 146.616 399.581 146.66 399.276C146.704 398.972 146.642 398.662 146.484 398.397C146.327 398.133 146.084 397.931 145.795 397.824Z" fill="#E0E0E0"/>
<path d="M147.206 263.337H113.069C110.322 263.337 108.096 265.564 108.096 268.31V278.457C108.096 281.204 110.322 283.43 113.069 283.43H147.206C149.953 283.43 152.179 281.204 152.179 278.457V268.31C152.179 265.564 149.953 263.337 147.206 263.337Z" fill="#00A954"/>
<path d="M112.752 283.44V285.187C112.752 286.627 114.317 287.798 116.237 287.798H144.077C145.997 287.798 147.562 286.627 147.562 285.187V283.44H112.752Z" fill="#00A954"/>
<path opacity="0.3" d="M112.752 283.44V285.187C112.752 286.627 114.317 287.798 116.237 287.798H144.077C145.997 287.798 147.562 286.627 147.562 285.187V283.44H112.752Z" fill="white"/>
</svg>
