<svg width="15" height="15" viewBox="0 0 15 15" fill="none" xmlns="http://www.w3.org/2000/svg">
<path d="M11.875 6.25V2.5M10 4.375H13.75M10 13.125V12.375C10 11.3249 10 10.7999 9.79564 10.3988C9.61587 10.046 9.32904 9.75913 8.97623 9.57936C8.57515 9.375 8.0501 9.375 7 9.375H4.25C3.1999 9.375 2.67485 9.375 2.27377 9.57936C1.92096 9.75913 1.63413 10.046 1.45436 10.3988C1.25 10.7999 1.25 11.3249 1.25 12.375V13.125M7.8125 4.6875C7.8125 5.89562 6.83312 6.875 5.625 6.875C4.41688 6.875 3.4375 5.89562 3.4375 4.6875C3.4375 3.47938 4.41688 2.5 5.625 2.5C6.83312 2.5 7.8125 3.47938 7.8125 4.6875Z" stroke="white" stroke-width="1.5" stroke-linecap="round" stroke-linejoin="round"/>
</svg>
