<svg width="428" height="454" viewBox="0 0 428 454" fill="none" xmlns="http://www.w3.org/2000/svg">
<path d="M364.346 242.235C280.768 193.985 145.706 193.985 62.6752 242.235C-20.3552 290.485 -19.8848 368.725 63.6352 416.955C147.155 465.185 282.285 465.205 365.325 416.955C448.365 368.705 447.923 290.494 364.346 242.235Z" fill="#F5F5F5"/>
<path d="M239.584 224.677L230.483 219.425C229.515 218.869 228.418 218.576 227.301 218.576C226.184 218.576 225.087 218.869 224.118 219.425L162.467 255.022C149.891 253.16 136.029 255.022 126.227 260.782C116.426 266.542 113.2 274.385 116.378 281.624L75.8368 305.038C75.4221 305.277 75.0777 305.622 74.8383 306.036C74.5988 306.451 74.4728 306.921 74.4728 307.4C74.4728 307.879 74.5988 308.349 74.8383 308.763C75.0777 309.178 75.4221 309.522 75.8368 309.761L84.9376 315.013C85.9042 315.574 87.0021 315.87 88.12 315.87C89.2378 315.87 90.3358 315.574 91.3024 315.013L129.078 293.24C144.016 300.392 166.125 299.96 180.035 291.848C193.946 283.736 194.666 271.054 182.445 262.433L239.584 229.448C240.008 229.21 240.36 228.864 240.606 228.444C240.851 228.025 240.98 227.548 240.98 227.062C240.98 226.576 240.851 226.099 240.606 225.68C240.36 225.261 240.008 224.915 239.584 224.677Z" fill="#E6E6E6"/>
<path d="M38.368 349.793C35.8912 351.224 35.8816 353.537 38.368 354.968L42.5824 357.483C43.9647 358.188 45.4945 358.556 47.0464 358.556C48.5983 358.556 50.1281 358.188 51.5104 357.483L162.333 293.499C164.8 292.069 164.819 289.755 162.333 288.325L158.118 285.809C156.735 285.108 155.205 284.743 153.654 284.743C152.103 284.743 150.574 285.108 149.19 285.809L38.368 349.793Z" fill="#E6E6E6"/>
<path d="M191.92 266.245C190.278 267.205 190.269 268.722 191.92 269.672L194.704 271.333C195.621 271.797 196.633 272.038 197.661 272.038C198.688 272.038 199.701 271.797 200.618 271.333L273.971 228.978C275.603 228.018 275.613 226.501 273.971 225.56L271.178 223.899C270.264 223.431 269.252 223.187 268.226 223.187C267.199 223.187 266.187 223.431 265.274 223.899L191.92 266.245Z" fill="#E6E6E6"/>
<path d="M309.213 371.058C291.558 360.872 263.027 360.872 245.488 371.058C227.949 381.243 228.035 397.784 245.69 407.979C263.344 418.174 291.885 418.174 309.424 407.979C326.963 397.784 326.877 381.253 309.213 371.058Z" fill="#E6E6E6"/>
<path d="M363.107 286.837C345.453 276.642 316.922 276.642 299.373 286.837C281.824 297.032 281.93 313.554 299.584 323.749C317.238 333.944 345.77 333.944 363.318 323.749C380.867 313.554 380.762 297.08 363.107 286.837Z" fill="#E6E6E6"/>
<path d="M195.76 377.538C178.106 367.342 149.574 367.342 132.035 377.538C114.496 387.733 114.582 404.254 132.237 414.45C149.891 424.645 178.432 424.645 195.971 414.45C213.51 404.254 213.462 387.733 195.76 377.538Z" fill="#E6E6E6"/>
<path d="M297.05 71.6238L300.813 69.4446L340.595 92.3214V96.6702L297.05 71.6238Z" fill="#F5F5F5"/>
<path d="M297.05 71.6238L340.595 96.6702V101.643L297.04 76.6254L297.05 71.6238Z" fill="#E0E0E0"/>
<path d="M363.338 109.764L367.101 107.576L406.883 130.452V134.811L363.338 109.764Z" fill="#F5F5F5"/>
<path d="M363.338 109.765L406.883 134.811V139.784L363.328 114.757L363.338 109.765Z" fill="#E0E0E0"/>
<path d="M297.261 29.816L301.024 27.6272L300.803 140.274L297.04 142.462L297.261 29.816Z" fill="#F0F0F0"/>
<path d="M297.04 142.462L300.803 140.273L344.138 165.147L340.374 167.336L297.04 142.462Z" fill="#F5F5F5"/>
<path d="M292.941 22.3374L344.934 52.2126L344.694 174.814L292.72 144.939L292.941 22.3374ZM340.374 167.297L340.595 54.651L297.261 29.8158L297.04 142.462L340.374 167.336" fill="#E0E0E0"/>
<path d="M292.941 22.3375L296.704 20.1487L348.707 50.0239L344.934 52.2127L292.941 22.3375Z" fill="#F5F5F5"/>
<path d="M344.934 52.2127L348.707 50.0239L348.458 172.626L344.685 174.814L344.934 52.2127Z" fill="#F0F0F0"/>
<path d="M363.549 67.9566L367.312 65.7678L367.091 178.414L363.328 180.593L363.549 67.9566Z" fill="#F0F0F0"/>
<path d="M363.328 180.593L367.091 178.414L410.426 203.288L406.662 205.467L363.328 180.593Z" fill="#F5F5F5"/>
<path d="M359.229 60.4783L411.222 90.3535L410.973 212.945L358.96 183.07L359.229 60.4783ZM406.662 205.438L406.883 92.8015L363.549 67.9471L363.328 180.593L406.662 205.467" fill="#E0E0E0"/>
<path d="M359.229 60.4783L362.992 58.2896L414.995 88.1647L411.222 90.3536L359.229 60.4783Z" fill="#F5F5F5"/>
<path d="M411.222 90.3534L414.995 88.1646L414.746 210.757L410.982 212.945L411.222 90.3534Z" fill="#F0F0F0"/>
<path d="M151.763 286.357V294.123C151.792 294.466 151.949 294.786 152.202 295.019C152.455 295.252 152.787 295.381 153.131 295.381C153.475 295.381 153.807 295.252 154.061 295.019C154.314 294.786 154.47 294.466 154.499 294.123V286.357H151.763Z" fill="#00A954"/>
<path d="M154.48 249.454C154.496 249.265 154.472 249.075 154.411 248.895C154.349 248.715 154.251 248.55 154.122 248.41C153.994 248.271 153.838 248.159 153.664 248.083C153.49 248.006 153.302 247.967 153.112 247.967C152.922 247.967 152.734 248.006 152.56 248.083C152.386 248.159 152.23 248.271 152.102 248.41C151.973 248.55 151.875 248.715 151.813 248.895C151.752 249.075 151.728 249.265 151.744 249.454V286.357H154.48V249.454Z" fill="#263238"/>
<path d="M157.802 246.834C157.669 246.713 157.513 246.62 157.344 246.56C157.175 246.5 156.996 246.473 156.817 246.482C156.455 246.5 156.115 246.661 155.872 246.93C155.629 247.198 155.502 247.553 155.52 247.914C155.538 248.276 155.699 248.616 155.968 248.859L180.506 271.016L182.426 269.096L157.802 246.834Z" fill="#263238"/>
<path d="M186.794 273.022L182.435 269.086L180.515 271.006L184.979 275.029C185.108 275.148 185.259 275.241 185.424 275.302C185.589 275.363 185.764 275.391 185.939 275.384C186.214 275.383 186.482 275.299 186.708 275.143C186.934 274.987 187.107 274.766 187.206 274.51C187.304 274.254 187.323 273.974 187.26 273.707C187.197 273.44 187.054 273.198 186.851 273.013L186.794 273.022Z" fill="#00A954"/>
<path d="M119.469 273.023C119.266 273.207 119.123 273.449 119.06 273.716C118.997 273.984 119.016 274.264 119.114 274.52C119.213 274.776 119.386 274.997 119.612 275.153C119.838 275.309 120.106 275.393 120.381 275.394C120.556 275.401 120.731 275.373 120.896 275.312C121.061 275.251 121.212 275.158 121.341 275.039L125.805 271.016L123.885 269.096L119.469 273.023Z" fill="#00A954"/>
<path d="M150.39 246.93C150.148 246.663 149.81 246.504 149.45 246.486C149.09 246.468 148.738 246.593 148.47 246.834L123.837 269.086L125.757 271.006L150.294 248.85C150.561 248.607 150.72 248.269 150.738 247.909C150.756 247.55 150.631 247.197 150.39 246.93Z" fill="#263238"/>
<path d="M161.2 246.027H145.091V250.674C145.091 251.874 145.898 253.064 147.472 253.967C149.23 254.865 151.176 255.333 153.15 255.333C155.125 255.333 157.071 254.865 158.829 253.967C160.394 253.064 161.171 251.874 161.162 250.674L161.2 246.027Z" fill="#37474F"/>
<path d="M158.79 242.734C161.939 244.549 161.958 247.534 158.79 249.31C157.032 250.209 155.086 250.677 153.112 250.677C151.138 250.677 149.192 250.209 147.434 249.31C144.285 247.496 144.266 244.51 147.434 242.734C149.192 241.836 151.138 241.368 153.112 241.368C155.086 241.368 157.032 241.836 158.79 242.734Z" fill="#455A64"/>
<path d="M150.861 75.9153V245.528C150.874 245.733 150.942 245.931 151.059 246.1C151.176 246.269 151.336 246.403 151.523 246.488C152.021 246.743 152.572 246.876 153.131 246.876C153.69 246.876 154.242 246.743 154.739 246.488C154.929 246.407 155.092 246.274 155.209 246.104C155.326 245.934 155.393 245.734 155.402 245.528V75.9153H150.861Z" fill="#263238"/>
<path d="M78.7936 89.1632V235.141L226.163 150.056V3.44482L78.7936 89.1632Z" fill="#455A64"/>
<path d="M84.2464 92.3024L220.701 12.9392V146.898L84.2464 225.685V92.3024Z" fill="#FAFAFA"/>
<path d="M82.9504 86.8402C84.1524 87.6229 85.1522 88.6789 85.868 89.9219C86.5838 91.1649 86.9953 92.5597 87.0688 93.9922C87.0688 96.613 85.2064 97.6786 82.9216 96.3538C81.7175 95.5748 80.7154 94.5212 79.9978 93.2795C79.2802 92.0379 78.8675 90.6436 78.7936 89.2114C78.8032 86.533 80.656 85.477 82.9504 86.8402Z" fill="#263238"/>
<path d="M235.274 7.8321C235.278 7.76498 235.278 7.69761 235.274 7.6305V7.4289V7.2273C235.279 7.157 235.279 7.0864 235.274 7.0161V6.8145C235.274 6.7473 235.274 6.6705 235.226 6.6033C235.178 6.5361 235.226 6.5457 235.226 6.5265C235.226 6.5265 235.226 6.4593 235.226 6.4305L235.168 6.2097C235.168 6.1617 235.168 6.1041 235.12 6.0561V5.9889C235.12 5.9217 235.072 5.8545 235.053 5.7777C235.034 5.7009 235.005 5.6433 234.976 5.5665V5.4993L234.918 5.3649C234.897 5.29616 234.871 5.22883 234.842 5.1633C234.823 5.11352 234.801 5.06536 234.774 5.0193V4.9713L234.688 4.7697C234.649 4.69802 234.614 4.62432 234.582 4.5489V4.5009L234.486 4.3281L234.371 4.1169L234.314 4.0113V3.9633L234.198 3.7809L234.035 3.5217V3.4737L233.776 3.1089C233.71 3.03305 233.649 2.95288 233.594 2.8689C233.536 2.8113 233.488 2.7441 233.44 2.6865L233.277 2.4945L233.123 2.3217L233.008 2.1969L232.835 2.0241L232.778 1.9761L232.691 1.8993L232.509 1.7361L232.422 1.6689H232.355C232.299 1.61878 232.237 1.5738 232.173 1.5345L232.048 1.4385L231.866 1.3233L231.693 1.2177L231.558 1.1409L231.386 1.0545L231.28 0.996898H231.222L231.059 0.920098L230.886 0.862498H230.771L230.598 0.814499H230.522H230.435H230.253H229.658C229.578 0.80923 229.498 0.80923 229.418 0.814499H229.36L229.13 0.872098C229.018 0.909587 228.911 0.961205 228.813 1.0257L80.608 86.9457C80.7081 86.8863 80.8143 86.838 80.9248 86.8017L81.1744 86.7249C81.2766 86.7155 81.3794 86.7155 81.4816 86.7249H81.904C82.0192 86.7249 82.1344 86.7249 82.2496 86.7825L82.6144 86.8785C82.7392 86.8785 82.8736 86.9745 83.008 87.0417C83.1424 87.0993 83.2768 87.1761 83.4208 87.2529L83.8336 87.5217C83.9584 87.6177 84.0832 87.7041 84.208 87.8097L84.5536 88.1169H84.6016L84.9376 88.4625L85.2928 88.8561L85.6288 89.2881C85.7344 89.4225 85.8304 89.5665 85.9168 89.7009L86.0896 89.9697C86.0896 90.0465 86.1856 90.1137 86.224 90.1905L86.2816 90.2961L86.4928 90.6897C86.5792 90.8529 86.656 91.0065 86.7232 91.1697C86.7904 91.3233 86.8576 91.4865 86.9152 91.6401C86.9824 91.8033 87.0304 91.9665 87.088 92.1297C87.088 92.2929 87.184 92.4465 87.2224 92.6097C87.2224 92.7729 87.2896 92.9361 87.3184 93.0993C87.3471 93.2612 87.3663 93.4247 87.376 93.5889C87.3856 93.7487 87.3856 93.909 87.376 94.0689C87.376 94.2225 87.376 94.3761 87.376 94.5201L87.3184 94.9041C87.2934 95.0211 87.2614 95.1365 87.2224 95.2497C87.2256 95.272 87.2256 95.2946 87.2224 95.3169C87.194 95.4166 87.1554 95.5131 87.1072 95.6049C87.0586 95.7071 87.0041 95.8065 86.944 95.9025C86.895 95.9769 86.8405 96.0475 86.7808 96.1137L86.7232 96.1809L86.56 96.3345L86.4928 96.3921C86.42 96.4519 86.343 96.5064 86.2624 96.5553L234.467 10.6353C234.553 10.5864 234.634 10.5285 234.707 10.4625L234.774 10.4049L234.928 10.2609L234.995 10.1841C235.052 10.1177 235.103 10.0471 235.149 9.9729C235.149 9.8865 235.254 9.7905 235.302 9.6849C235.332 9.62262 235.358 9.55848 235.379 9.4929C235.379 9.4929 235.379 9.4257 235.379 9.3873V9.3297C235.375 9.31072 235.375 9.29107 235.379 9.2721C235.401 9.20308 235.417 9.13246 235.427 9.0609C235.432 9.03548 235.432 9.00952 235.427 8.9841V8.9361C235.427 8.9361 235.427 8.9361 235.427 8.8593V8.6577C235.427 8.6577 235.427 8.5809 235.427 8.5521V8.4657C235.427 8.3985 235.427 8.3313 235.427 8.2641C235.427 8.1969 235.427 8.1297 235.427 8.0625C235.385 7.97985 235.334 7.9025 235.274 7.8321Z" fill="#37474F"/>
<path d="M178.058 114.382L194.493 115.794L194.56 137.566C184.096 143.605 175.59 138.757 175.552 126.738C175.621 122.5 176.47 118.312 178.058 114.382Z" fill="#00A954"/>
<path d="M203.949 91.4385C209.603 91.9569 213.414 96.7857 213.443 104.83C213.443 116.859 205.024 131.518 194.56 137.566L194.493 115.774L203.862 91.5633L203.949 91.4385Z" fill="#00A954"/>
<path d="M194.435 94.0304C197.258 92.2301 200.565 91.3389 203.91 91.4768L203.862 91.6016L194.493 115.794L178.058 114.382C181.36 106.04 187.427 98.0816 194.435 94.0304Z" fill="#00A954"/>
<g opacity="0.2">
<path d="M194.435 94.0304C197.258 92.2301 200.565 91.3389 203.91 91.4768L203.862 91.6016L194.493 115.794L178.058 114.382C181.36 106.04 187.427 98.0816 194.435 94.0304Z" fill="white"/>
</g>
<path d="M178.058 114.382L194.493 115.794L194.56 137.566C184.096 143.605 175.59 138.757 175.552 126.738C175.621 122.5 176.47 118.312 178.058 114.382Z" fill="#FFA200"/>
<g opacity="0.1">
<path d="M203.949 91.4385C209.603 91.9569 213.414 96.7857 213.443 104.83C213.443 116.859 205.024 131.518 194.56 137.566L194.493 115.774L203.862 91.5633L203.949 91.4385Z" fill="black"/>
</g>
<path d="M180.16 58.5297C181.571 57.7233 182.704 58.3761 182.714 59.9889C182.666 60.8679 182.412 61.7234 181.971 62.4857C181.531 63.248 180.917 63.8957 180.179 64.3761C178.768 65.1921 177.635 64.5393 177.626 62.9265C177.674 62.0463 177.929 61.1898 178.369 60.426C178.809 59.6623 179.423 59.0127 180.16 58.5297Z" fill="#00A954"/>
<path d="M180.189 68.6001C181.6 67.7841 182.733 68.4369 182.742 70.0497C182.695 70.93 182.44 71.7868 182 72.5507C181.56 73.3145 180.946 73.964 180.208 74.4465C178.797 75.2529 177.664 74.6001 177.654 72.9873C177.702 72.1082 177.956 71.2528 178.397 70.4905C178.837 69.7282 179.451 69.0805 180.189 68.6001Z" fill="#00A954"/>
<path d="M180.218 78.6801C181.619 77.8641 182.762 78.5169 182.771 80.1297C182.723 81.0099 182.468 81.8664 182.028 82.6302C181.588 83.3939 180.974 84.0435 180.237 84.5265C178.826 85.3329 177.693 84.6801 177.683 83.0673C177.731 82.1883 177.985 81.3328 178.426 80.5705C178.866 79.8082 179.48 79.1606 180.218 78.6801Z" fill="#00A954"/>
<path d="M180.246 88.76C181.648 87.944 182.79 88.5968 182.8 90.2096C182.752 91.09 182.498 91.9467 182.058 92.7106C181.618 93.4744 181.004 94.1239 180.266 94.6064C178.854 95.4128 177.722 94.7696 177.712 93.1472C177.76 92.2681 178.014 91.4127 178.454 90.6504C178.895 89.8881 179.509 89.2404 180.246 88.76Z" fill="#00A954"/>
<path d="M194.483 51.5024L194.493 54.8624L186.131 59.6912L186.122 56.3408L194.483 51.5024Z" fill="#E0E0E0"/>
<path d="M205.658 45.0513L205.667 48.4113L197.306 53.2401L197.296 49.8801L205.658 45.0513Z" fill="#E0E0E0"/>
<path d="M208.912 73.448L208.922 76.808L196.883 83.7584L196.874 80.3984L208.912 73.448Z" fill="#E0E0E0"/>
<path d="M201.539 67.6208L201.549 70.9712L186.189 79.8416L186.179 76.4816L201.539 67.6208Z" fill="#E0E0E0"/>
<path d="M196.73 60.3057L196.739 63.6561L186.16 69.7713L186.15 66.4113L196.73 60.3057Z" fill="#E0E0E0"/>
<path d="M194.57 81.7234L194.579 85.0834L186.218 89.9122L186.208 86.5618L194.57 81.7234Z" fill="#E0E0E0"/>
<path d="M102.314 189.099V192.277L93.5776 197.326L93.568 194.149L102.314 189.099Z" fill="#E0E0E0"/>
<path d="M106.307 174.095V177.263L93.5392 184.636L93.5296 181.468L106.307 174.095Z" fill="#E0E0E0"/>
<path d="M121.754 171.521L121.763 174.689L93.5584 190.981L93.5488 187.813L121.754 171.521Z" fill="#E0E0E0"/>
<path d="M167.709 138.642L167.718 141.81L141.626 156.872L141.616 153.704L167.709 138.642Z" fill="#E0E0E0"/>
<path d="M128.512 173.97L128.522 177.147L106.768 189.704L106.758 186.536L128.512 173.97Z" fill="#E0E0E0"/>
<path d="M117.126 161.49V164.667L93.52 178.299L93.5104 175.122L117.126 161.49Z" fill="#E0E0E0"/>
<path d="M167.728 144.978L167.738 148.155L156.112 154.856L156.102 151.688L167.728 144.978Z" fill="#E0E0E0"/>
<path d="M167.747 151.323L167.757 154.491L151.917 163.64L151.907 160.462L167.747 151.323Z" fill="#E0E0E0"/>
<path d="M164.982 127.247L164.992 128.898L93.568 170.149V168.498L164.982 127.247Z" fill="#395A65"/>
<path d="M118.95 105.109L119.123 149.979L108.928 155.864L108.755 110.994L118.95 105.109Z" fill="#FFA200"/>
<path d="M118.95 87.9153V105.109L108.755 110.994V93.8001L118.95 87.9153Z" fill="#E0E0E0"/>
<path d="M134.262 109.736L134.406 141.148L124.221 147.042L124.077 115.621L134.262 109.736Z" fill="#FFA200"/>
<path d="M134.262 79.0449V109.736L124.077 115.621V84.9297L134.262 79.0449Z" fill="#E0E0E0"/>
<path d="M149.488 81.5984L149.699 132.325L139.504 138.21L139.302 87.4832L149.488 81.5984Z" fill="#FFA200"/>
<path d="M149.488 70.501V81.5986L139.302 87.4834V76.3858L149.488 70.501Z" fill="#E0E0E0"/>
<path d="M164.742 61.4578L164.992 123.503L154.797 129.378L154.547 67.3426L164.742 61.4578Z" fill="#FFA200"/>
<path d="M103.734 140.034L103.83 158.811L93.6352 164.696L93.5392 145.918L103.734 140.034Z" fill="#FFA200"/>
<path d="M103.734 97.4097V140.034L93.5392 145.918V103.294L103.734 97.4097Z" fill="#E0E0E0"/>
<path d="M162.611 163.026C162.235 162.275 161.668 161.636 160.967 161.172C160.266 160.709 159.456 160.438 158.618 160.386C158.44 160.393 158.265 160.429 158.099 160.491L38.7616 229.4C38.1554 229.744 37.667 230.262 37.36 230.888C37.1264 231.36 37.0049 231.879 37.0048 232.405V338.965C37.0281 339.485 37.1733 339.992 37.4287 340.446C37.6841 340.899 38.0425 341.287 38.4751 341.576C38.9077 341.866 39.4022 342.05 39.9189 342.113C40.4356 342.176 40.9599 342.117 41.4496 341.941C41.4967 341.928 41.5419 341.908 41.584 341.883L160.922 272.936C161.452 272.634 161.894 272.197 162.2 271.669C162.507 271.142 162.669 270.542 162.669 269.931V163.4C162.675 163.273 162.655 163.145 162.611 163.026Z" fill="#00A954"/>
<path opacity="0.2" d="M37.0144 232.405V338.965C37.0377 339.485 37.1829 339.992 37.4383 340.446C37.6937 340.899 38.0521 341.287 38.4847 341.576C38.9172 341.866 39.4118 342.05 39.9285 342.113C40.4452 342.177 40.9695 342.118 41.4592 341.941C41.3295 341.987 41.1908 342.001 41.0545 341.983C40.9182 341.964 40.7884 341.913 40.6757 341.834C40.563 341.755 40.4708 341.651 40.4067 341.529C40.3426 341.407 40.3085 341.272 40.3072 341.135V234.575C40.3064 233.89 40.5103 233.222 40.8928 232.655L37.36 230.888C37.1297 231.36 37.0115 231.88 37.0144 232.405Z" fill="white"/>
<path opacity="0.4" d="M158.618 160.386C158.44 160.393 158.265 160.429 158.099 160.491L38.7616 229.4C38.1555 229.744 37.667 230.263 37.36 230.888L40.9024 232.655C41.1984 232.204 41.5963 231.829 42.064 231.56L161.411 162.68C161.514 162.622 161.627 162.586 161.744 162.574C161.861 162.562 161.98 162.573 162.092 162.608C162.204 162.644 162.308 162.701 162.398 162.778C162.487 162.855 162.56 162.949 162.611 163.055C162.239 162.298 161.673 161.653 160.972 161.185C160.271 160.716 159.459 160.441 158.618 160.386Z" fill="white"/>
<path opacity="0.3" d="M162.611 163.026C162.235 162.275 161.668 161.636 160.967 161.172C160.266 160.709 159.456 160.438 158.618 160.386C158.44 160.393 158.265 160.429 158.099 160.491L38.7616 229.4C38.1554 229.744 37.667 230.262 37.36 230.888C37.1264 231.36 37.0049 231.879 37.0048 232.405V338.965C37.0281 339.485 37.1733 339.992 37.4287 340.446C37.6841 340.899 38.0425 341.287 38.4751 341.576C38.9077 341.866 39.4022 342.05 39.9189 342.113C40.4356 342.176 40.9599 342.117 41.4496 341.941C41.4967 341.928 41.5419 341.908 41.584 341.883L160.922 272.936C161.452 272.634 161.894 272.197 162.2 271.669C162.507 271.142 162.669 270.542 162.669 269.931V163.4C162.675 163.273 162.655 163.145 162.611 163.026Z" fill="white"/>
<path opacity="0.4" d="M155.286 177.656C154.999 177.082 154.566 176.593 154.03 176.239C153.494 175.885 152.875 175.679 152.234 175.64C152.099 175.646 151.967 175.672 151.84 175.717L47.8144 235.64C47.4092 235.871 47.0723 236.204 46.8379 236.607C46.6035 237.01 46.48 237.468 46.48 237.935V313.919C46.4987 314.312 46.6087 314.696 46.8015 315.039C46.9943 315.383 47.2644 315.676 47.5906 315.897C47.9167 316.118 48.2898 316.26 48.6802 316.311C49.0707 316.363 49.4678 316.323 49.84 316.194L49.9456 316.146L153.971 256.194C154.376 255.963 154.713 255.629 154.948 255.226C155.182 254.823 155.306 254.366 155.306 253.899V177.944C155.319 177.848 155.313 177.75 155.286 177.656Z" fill="white"/>
<path d="M68.1184 273.502L68.1856 299.816L62.7904 302.936L62.7424 283.525L62.7232 276.613L68.1184 273.502Z" fill="#00A954"/>
<path d="M62.7424 283.525L62.7904 302.936L57.3952 306.056L57.3376 286.645L62.7424 283.525Z" fill="#455A64"/>
<path d="M78.8992 262.693L78.9856 293.586L73.5904 296.706L73.504 265.813L78.8992 262.693Z" fill="#455A64"/>
<path d="M95.0848 252.488L95.104 257.019L95.1808 284.235L89.7856 287.355L89.6896 255.599L95.0848 252.488Z" fill="#455A64"/>
<path d="M100.499 253.899L100.576 281.125L95.1808 284.235L95.104 257.019L100.499 253.899Z" fill="#00A954"/>
<path d="M148.989 195.656L149.152 253.074L143.757 256.194L143.651 218.6L143.594 198.767L148.989 195.656Z" fill="#00A954"/>
<path d="M143.651 218.6L143.757 256.194L138.362 259.304L138.256 221.72L143.651 218.6Z" fill="#455A64"/>
<path d="M127.437 221.327L127.562 265.544L122.166 268.655L122.042 224.437L127.437 221.327Z" fill="#455A64"/>
<path d="M132.822 211.698L132.957 262.424L127.562 265.544L127.437 221.327L127.418 214.818L132.822 211.698Z" fill="#00A954"/>
<path d="M153.664 252.968V254.063L52.9024 312.229V311.135L153.664 252.968Z" fill="#455A64"/>
<path d="M116.666 234.575L116.771 271.775L111.366 274.885L111.28 241.295L111.27 237.695L116.666 234.575Z" fill="#00A954"/>
<g opacity="0.4">
<path d="M47.2864 327.733V330.267L54.2752 326.235V323.691L47.2864 327.733Z" fill="white"/>
<path d="M69.8176 309.646L47.2672 322.664L47.2768 325.198L69.8272 312.181L69.8176 309.646Z" fill="white"/>
<path d="M131.68 274.117L109.13 287.134L109.139 289.669L131.69 276.642L131.68 274.117Z" fill="white"/>
<path d="M78.7744 309.551L78.784 312.085L90.3712 305.394L90.3616 302.859L78.7744 309.551Z" fill="white"/>
<path d="M133.619 273.09L133.629 275.634L145.216 268.942L145.206 266.398L133.619 273.09Z" fill="white"/>
<path d="M95.1136 300.277L95.1232 302.821L115.322 291.234L115.312 288.699L95.1136 300.277Z" fill="white"/>
<path d="M73.3792 307.592V310.127L93.7312 298.376L93.7216 295.842L73.3792 307.592Z" fill="white"/>
<path d="M57.8272 321.637L57.8368 324.181L75.2224 314.139V311.595L57.8272 321.637Z" fill="white"/>
<path d="M106.566 288.431L97.2736 293.787L97.2832 296.322L106.576 290.955L106.566 288.431Z" fill="white"/>
</g>
<path d="M271.773 85.5729C271.395 84.8191 270.825 84.1783 270.12 83.7148C269.416 83.2514 268.602 82.9817 267.76 82.9329C267.58 82.937 267.402 82.9694 267.232 83.0289L192.083 126.363C191.481 126.709 190.996 127.227 190.691 127.851C190.458 128.323 190.336 128.842 190.336 129.368V235.928C190.359 236.449 190.504 236.958 190.76 237.412C191.016 237.867 191.375 238.255 191.809 238.545C192.243 238.834 192.739 239.018 193.257 239.08C193.775 239.143 194.3 239.082 194.79 238.904L194.934 238.846L270.083 195.483C270.614 195.181 271.055 194.744 271.362 194.216C271.669 193.689 271.831 193.089 271.83 192.478V85.9473C271.838 85.8198 271.819 85.6921 271.773 85.5729Z" fill="#00A954"/>
<path opacity="0.2" d="M190.355 129.368V235.928C190.378 236.449 190.523 236.958 190.779 237.412C191.035 237.867 191.395 238.255 191.828 238.544C192.262 238.834 192.758 239.018 193.276 239.08C193.794 239.143 194.319 239.082 194.81 238.904C194.68 238.95 194.541 238.964 194.405 238.945C194.269 238.927 194.139 238.876 194.026 238.797C193.913 238.718 193.821 238.614 193.757 238.492C193.693 238.37 193.659 238.235 193.658 238.097V131.537C193.657 130.853 193.861 130.185 194.243 129.617L190.701 127.851C190.471 128.323 190.352 128.842 190.355 129.368Z" fill="white"/>
<path opacity="0.4" d="M267.76 82.9329C267.58 82.937 267.402 82.9694 267.232 83.0289L192.083 126.363C191.481 126.709 190.996 127.227 190.691 127.851L194.234 129.618C194.53 129.167 194.928 128.792 195.395 128.523L270.554 85.1889C270.657 85.1315 270.771 85.0959 270.888 85.0842C271.006 85.0726 271.124 85.0851 271.237 85.1211C271.349 85.1571 271.453 85.2158 271.542 85.2935C271.631 85.3712 271.703 85.4662 271.754 85.5729C271.377 84.8218 270.81 84.1827 270.109 83.7195C269.409 83.2562 268.599 82.9849 267.76 82.9329Z" fill="white"/>
<path opacity="0.3" d="M271.773 85.5633C271.393 84.8113 270.823 84.1724 270.119 83.7107C269.414 83.249 268.601 82.9807 267.76 82.9329C267.58 82.937 267.402 82.9694 267.232 83.0289L192.083 126.363C191.481 126.709 190.996 127.227 190.691 127.851C190.458 128.323 190.336 128.842 190.336 129.368V235.928C190.359 236.449 190.504 236.958 190.76 237.412C191.016 237.867 191.375 238.255 191.809 238.545C192.243 238.834 192.739 239.018 193.257 239.08C193.775 239.143 194.3 239.082 194.79 238.904L194.934 238.846L270.083 195.483C270.614 195.181 271.055 194.744 271.362 194.216C271.669 193.689 271.831 193.089 271.83 192.478V85.9473C271.838 85.8167 271.818 85.686 271.773 85.5633Z" fill="white"/>
<path opacity="0.4" d="M201.03 133.784L264.496 97.1987V171.32L201.03 207.944V133.784Z" fill="white"/>
<g opacity="0.4">
<path d="M211.917 213.08L211.926 215.787L200.982 222.104V219.387L211.917 213.08Z" fill="white"/>
<path d="M225.146 210.882L225.155 213.589L201.002 227.538L200.992 224.821L225.146 210.882Z" fill="white"/>
<path d="M264.486 182.725L264.496 185.432L242.157 198.335L242.147 195.618L264.486 182.725Z" fill="white"/>
<path d="M240.592 191.077V193.794L224.992 202.808L224.982 200.092L240.592 191.077Z" fill="white"/>
<path d="M238.346 197.816V200.533L215.738 213.589L215.728 210.882L238.346 197.816Z" fill="white"/>
<path d="M221.181 202.29V205.007L200.973 216.68L200.963 213.954L221.181 202.29Z" fill="white"/>
<path d="M249.098 197.23L249.107 199.947L228.89 211.611V208.894L249.098 197.23Z" fill="white"/>
</g>
<path d="M222.189 176.226L224.531 183.214L222.342 192.421L217.706 195.099L222.189 176.226Z" fill="#00A954"/>
<path opacity="0.2" d="M222.189 176.226L224.531 183.214L222.342 192.421L217.706 195.099L222.189 176.226Z" fill="black"/>
<path d="M224.531 183.214L226.768 189.867L222.342 192.421L224.531 183.214Z" fill="#00A954"/>
<g opacity="0.3">
<path d="M224.531 183.214L226.768 189.867L222.342 192.421L224.531 183.214Z" fill="black"/>
</g>
<path d="M227.526 170.619L232.816 186.373L226.768 189.867L224.531 183.214L227.526 170.619Z" fill="#00A954"/>
<g opacity="0.2">
<path d="M227.526 170.619L232.816 186.373L226.768 189.867L224.531 183.214L227.526 170.619Z" fill="black"/>
</g>
<path d="M225.184 163.64L227.526 170.619L224.531 183.215L222.189 176.226L225.184 163.64Z" fill="#00A954"/>
<path d="M214.797 154.232L222.189 176.226L217.706 195.099L203.075 203.547L214.797 154.232Z" fill="#00A954"/>
<path d="M244.893 145.103L254.531 173.835L235.437 184.866L244.893 145.103Z" fill="#00A954"/>
<path opacity="0.2" d="M244.893 145.103L254.531 173.835L235.437 184.866L244.893 145.103Z" fill="black"/>
<path d="M238.278 125.413L244.893 145.103L235.437 184.866L232.816 186.373L227.526 170.62L238.278 125.413Z" fill="#00A954"/>
<path d="M249.51 125.643L263.882 168.44L254.531 173.835L244.893 145.102L249.51 125.643Z" fill="#00A954"/>
<path opacity="0.1" d="M249.51 125.643L244.893 145.103L238.278 125.413L227.526 170.619L225.184 163.64L222.189 176.226L214.797 154.232L203.075 203.548L217.706 195.099L222.342 192.421L226.768 189.868L232.816 186.373L235.437 184.866L254.531 173.835L263.882 168.44L249.51 125.643Z" fill="black"/>
<path d="M98.9632 121.957C98.5868 121.206 98.0198 120.567 97.319 120.103C96.6182 119.64 95.8081 119.369 94.9696 119.317C94.7893 119.325 94.6112 119.361 94.4416 119.422L11.248 167.643C10.7229 167.95 10.2871 168.388 9.98392 168.916C9.68078 169.443 9.52085 170.04 9.52002 170.648V223.88C9.54284 224.401 9.68811 224.91 9.94405 225.364C10.2 225.819 10.5594 226.207 10.9932 226.497C11.427 226.786 11.9229 226.97 12.4409 227.033C12.9588 227.095 13.4842 227.035 13.9744 226.856L14.1184 226.798L97.3216 178.539C97.8536 178.239 98.296 177.802 98.6031 177.274C98.9102 176.746 99.0709 176.145 99.0688 175.534V122.36C99.0683 122.219 99.0319 122.08 98.9632 121.957Z" fill="#00A954"/>
<path opacity="0.2" d="M9.52002 170.648V223.88C9.54284 224.401 9.68811 224.91 9.94405 225.364C10.2 225.819 10.5594 226.207 10.9932 226.497C11.427 226.786 11.9229 226.97 12.4409 227.032C12.9588 227.095 13.4842 227.034 13.9744 226.856C13.8448 226.902 13.706 226.916 13.5697 226.898C13.4335 226.879 13.3036 226.828 13.1909 226.749C13.0782 226.67 12.986 226.566 12.9219 226.444C12.8578 226.322 12.8237 226.187 12.8224 226.05V172.808C12.8216 172.124 13.0256 171.455 13.408 170.888L9.86562 169.122C9.6329 169.596 9.51454 170.119 9.52002 170.648Z" fill="white"/>
<path opacity="0.4" d="M94.96 119.317C94.7797 119.325 94.6016 119.361 94.432 119.422L11.248 167.643C10.6431 167.986 10.1574 168.505 9.85602 169.131L13.36 170.898C13.6534 170.445 14.0519 170.069 14.5216 169.803L97.7248 121.582C97.8274 121.525 97.9407 121.489 98.0578 121.476C98.1749 121.464 98.2932 121.476 98.4056 121.511C98.5179 121.546 98.622 121.604 98.7113 121.68C98.8006 121.757 98.8732 121.851 98.9248 121.957C98.5508 121.21 97.9884 120.573 97.293 120.11C96.5976 119.647 95.7935 119.374 94.96 119.317Z" fill="white"/>
<path opacity="0.3" d="M98.9632 121.957C98.5868 121.206 98.0198 120.567 97.319 120.103C96.6182 119.64 95.8081 119.369 94.9696 119.317C94.7893 119.325 94.6112 119.361 94.4416 119.422L11.248 167.643C10.7229 167.95 10.2871 168.388 9.98392 168.916C9.68078 169.443 9.52085 170.04 9.52002 170.648V223.88C9.54284 224.401 9.68811 224.91 9.94405 225.364C10.2 225.819 10.5594 226.207 10.9932 226.497C11.427 226.786 11.9229 226.97 12.4409 227.033C12.9588 227.095 13.4842 227.035 13.9744 226.856L14.1184 226.798L97.3216 178.539C97.8536 178.239 98.296 177.802 98.6031 177.274C98.9102 176.746 99.0709 176.145 99.0688 175.534V122.36C99.0683 122.219 99.0319 122.08 98.9632 121.957Z" fill="white"/>
<path d="M90.016 136.328L90.0256 141.013L20.4352 181.189L20.4256 176.504L20.4352 181.189L76.5952 148.77L76.576 144.085L90.016 136.328Z" fill="#F5F5F5"/>
<path opacity="0.4" d="M82.2784 163.659L82.2976 168.354L20.5024 204.027L20.4928 199.333L82.2784 163.659Z" fill="white"/>
<path d="M90.1024 166.76L90.112 171.455L20.5216 211.631L20.512 206.936L20.5216 211.631L59.2192 189.291L59.2 184.607L90.1024 166.76Z" fill="#F5F5F5"/>
<path d="M59.2 184.606L59.2192 189.291L20.5216 211.63L20.512 206.936L59.2 184.606Z" fill="#00A954"/>
<path d="M90.0736 159.157L90.0928 163.851L20.5024 204.027L20.4928 199.333L20.5024 204.027L82.2976 168.354L82.2784 163.659L90.0736 159.157Z" fill="#F5F5F5"/>
<path d="M90.0544 151.544L90.0736 156.229L20.4832 196.405L20.464 191.72L20.4832 196.405L64.5088 170.984L64.4896 166.299L90.0544 151.544Z" fill="#F5F5F5"/>
<path d="M64.4896 166.299L64.5088 170.984L20.4832 196.405L20.464 191.72L64.4896 166.299Z" fill="#00A954"/>
<path d="M90.0352 143.931L90.0448 148.616L20.464 188.802L20.4448 184.107L20.464 188.802L46.3936 173.826L46.3744 169.141L90.0352 143.931Z" fill="#F5F5F5"/>
<path d="M46.3744 169.141L46.3936 173.826L20.464 188.802L20.4448 184.108L46.3744 169.141Z" fill="#00A954"/>
<path d="M76.576 144.085L76.5952 148.77L20.4352 181.189L20.4256 176.504L76.576 144.085Z" fill="#00A954"/>
<path opacity="0.4" d="M82.2784 163.659L82.2976 168.354L20.5024 204.027L20.4928 199.333L82.2784 163.659Z" fill="white"/>
<path opacity="0.4" d="M59.2 184.606L59.2192 189.291L20.5216 211.63L20.512 206.936L59.2 184.606Z" fill="white"/>
<path opacity="0.4" d="M64.4896 166.299L64.5088 170.984L20.4832 196.405L20.464 191.72L64.4896 166.299Z" fill="white"/>
<path opacity="0.4" d="M46.3744 169.141L46.3936 173.826L20.464 188.802L20.4448 184.108L46.3744 169.141Z" fill="white"/>
<g opacity="0.4">
<path d="M76.576 144.085L76.5952 148.77L20.4352 181.189L20.4256 176.504L76.576 144.085Z" fill="white"/>
</g>
<path d="M147.462 163.035V166.213L132.966 174.584L132.957 171.406L147.462 163.035Z" fill="#E0E0E0"/>
<path d="M151.658 154.261L151.667 157.429L126.218 172.126L126.208 168.949L151.658 154.261Z" fill="#E0E0E0"/>
<path d="M139.792 148.405L139.802 151.573L121.581 162.094L121.571 158.917L139.792 148.405Z" fill="#E0E0E0"/>
<path d="M137.171 156.267L137.181 159.445L110.762 174.689L110.752 171.521L137.171 156.267Z" fill="#E0E0E0"/>
<path d="M111.28 241.294L111.366 274.885L105.971 278.005L105.875 244.414L111.28 241.294Z" fill="#455A64"/>
<path d="M84.2656 248.696L84.3808 290.475L78.9856 293.586L78.8992 262.693L78.8704 251.807L84.2656 248.696Z" fill="#00A954"/>
<path d="M147.626 181.467L144.87 188.581L143.901 187.227L99.9712 241.842L82.2208 240.325L57.184 270.891L56.4064 269.739L82.2304 238.203L99.9616 239.72L143.094 186.104L142.077 184.674L147.626 181.467Z" fill="#455A64"/>
<path d="M353.478 303.628C353.677 304.139 354.032 304.576 354.492 304.875C354.952 305.174 355.494 305.322 356.043 305.296C356.591 305.271 357.118 305.074 357.548 304.733C357.979 304.392 358.291 303.925 358.442 303.397C358.779 302.433 358.933 301.413 358.893 300.392C358.96 297.013 358.893 293.624 358.653 290.245C356.323 290.736 353.949 290.984 351.568 290.984C351.923 294.104 352.288 297.234 352.653 300.354C352.71 301.489 352.991 302.601 353.478 303.628Z" fill="#FFA8A7"/>
<path d="M360.88 298.76C360.006 295.938 359.046 293.058 359.248 290.12L358.662 290.255C358.883 293.634 358.97 297.023 358.902 300.402C358.942 301.423 358.789 302.442 358.451 303.407C358.301 303.934 357.988 304.402 357.558 304.743C357.127 305.083 356.601 305.28 356.052 305.306C355.504 305.331 354.961 305.184 354.501 304.884C354.041 304.585 353.687 304.149 353.488 303.637C353 302.611 352.72 301.498 352.662 300.363C352.298 297.243 351.933 294.114 351.578 290.994H350.829C351.462 294.498 351.002 298.088 350.829 301.65C350.656 305.211 350.646 308.907 352.173 312.123C352.526 312.994 353.131 313.74 353.91 314.264C354.337 314.496 354.807 314.638 355.29 314.683C355.774 314.727 356.261 314.673 356.723 314.523C357.642 314.213 358.477 313.693 359.162 313.007C360.723 311.518 361.764 309.565 362.128 307.439C362.56 304.539 361.744 301.573 360.88 298.76Z" fill="#455A64"/>
<path d="M323.949 296.062L324.534 299.547C325.985 298.961 327.249 297.992 328.192 296.744C328.259 294.066 328.192 291.31 328.192 289.966C327.453 291.598 325.84 292.693 324.842 294.2C324.465 294.779 324.164 295.405 323.949 296.062Z" fill="#37474F"/>
<path d="M323.056 299.173L324.534 299.547L323.949 296.062C323.584 297.08 323.344 298.126 323.056 299.173Z" fill="#263238"/>
<path d="M328.346 286.098C328.053 285.174 327.667 284.283 327.194 283.438C327.156 284.873 326.713 286.267 325.917 287.461C324.957 289.064 323.584 290.446 322.634 292.078C321.462 294.066 320.858 296.398 319.331 298.117C318.578 298.953 317.64 299.601 316.591 300.01C315.543 300.418 314.413 300.575 313.293 300.469C312.46 300.449 311.668 300.104 311.085 299.509C310.856 299.204 310.728 298.834 310.72 298.453C309.967 299.262 309.134 299.992 308.234 300.632C307.226 301.333 306.016 302.072 305.853 303.291C305.825 303.801 305.947 304.307 306.205 304.748C306.463 305.188 306.845 305.543 307.302 305.768C308.225 306.202 309.231 306.428 310.25 306.43C312.426 306.621 314.618 306.433 316.73 305.874C318.854 305.295 320.694 303.96 321.904 302.12C322.415 301.216 322.802 300.247 323.056 299.24C323.344 298.194 323.584 297.128 323.949 296.13C324.186 295.469 324.508 294.843 324.909 294.267C325.869 292.76 327.52 291.666 328.259 290.034C328.259 289.947 328.346 289.861 328.374 289.774C328.767 288.579 328.757 287.287 328.346 286.098Z" fill="#455A64"/>
<path d="M313.293 300.469C314.413 300.575 315.543 300.418 316.591 300.01C317.64 299.601 318.578 298.953 319.331 298.117C320.858 296.398 321.462 294.066 322.634 292.078C323.594 290.446 324.918 289.064 325.917 287.461C326.713 286.267 327.156 284.873 327.194 283.438L326.838 282.757C323.824 283.294 320.531 283.486 317.632 284.466C316.737 287.508 315.601 290.475 314.234 293.336C313.308 295.189 312.125 296.902 310.72 298.424C310.728 298.806 310.856 299.175 311.085 299.48C311.663 300.086 312.456 300.441 313.293 300.469Z" fill="#FFA8A7"/>
<path d="M321.52 174.805L321.03 182.485C315.27 206.235 316.979 241.726 316.979 241.726L317.162 284.994C317.977 285.532 318.892 285.902 319.852 286.083C320.813 286.263 321.8 286.249 322.755 286.043C323.71 285.836 324.614 285.441 325.414 284.88C326.214 284.319 326.895 283.603 327.414 282.776C328.374 272.139 333.338 255.416 331.859 242.35C333.837 232.059 335.325 217.39 335.325 217.39L340.173 242.715L350.262 291.598C354.717 293.518 358.672 292.194 359.958 290.456C358.922 263.499 359.363 250.539 355.206 238.069C356.493 204.622 356.886 189.512 348.736 178.021L348.842 173.682L321.52 174.805Z" fill="#37474F"/>
<path opacity="0.2" d="M334.182 211.746C331.168 211.203 328.331 209.934 325.917 208.05C326.38 209.391 327.179 210.591 328.238 211.535C329.297 212.48 330.58 213.137 331.965 213.445L334.509 224.005L335.277 217.477L334.182 211.746Z" fill="black"/>
<path d="M329.411 148.568L325.379 148.491C323.59 148.492 321.838 149.008 320.334 149.976C318.829 150.945 317.635 152.325 316.893 153.954L309.414 170.36C302.618 172.28 297.894 175.899 291.674 176.36C290.464 176.36 286.202 174.238 284.531 173.384C284.45 173.34 284.359 173.316 284.266 173.313C284.174 173.31 284.082 173.328 283.998 173.366C283.913 173.404 283.839 173.461 283.78 173.532C283.721 173.604 283.679 173.688 283.658 173.778C283.579 174.075 283.591 174.389 283.691 174.68C283.792 174.971 283.978 175.225 284.224 175.41L286.211 176.907C282.208 177.752 279.069 175.438 277.686 177.234C276.304 179.029 277.274 181.861 281.584 183.349C285.894 184.837 291.395 184.069 296.838 182.83C302.282 181.592 314.397 178.03 314.397 178.03C324.918 167.797 329.411 148.568 329.411 148.568Z" fill="#FFA8A7"/>
<path d="M329.411 148.568C320.973 147.263 317.805 151.035 316.403 154.002C315.002 156.968 309.213 169.928 309.213 169.928C305.504 171.13 301.93 172.713 298.547 174.651C301.59 178.155 300.784 181.093 300.122 182.034C304.658 181.496 309.149 180.633 313.562 179.451C314.675 179.128 315.673 178.495 316.442 177.627C327.203 165.311 329.565 149.643 329.411 148.568Z" fill="#455A64"/>
<path opacity="0.2" d="M329.411 148.568C320.973 147.263 317.805 151.035 316.403 154.002C315.002 156.968 309.213 169.928 309.213 169.928C305.504 171.13 301.93 172.713 298.547 174.651C301.59 178.155 300.784 181.093 300.122 182.034C304.658 181.496 309.149 180.633 313.562 179.451C314.675 179.128 315.673 178.495 316.442 177.627C327.203 165.311 329.565 149.643 329.411 148.568Z" fill="white"/>
<path d="M331.514 148.223L328.634 148.434C328.072 148.476 327.527 148.645 327.04 148.928C326.553 149.21 326.136 149.599 325.821 150.066L319.101 160.059C318.11 161.525 317.627 163.275 317.724 165.041C317.821 166.807 318.493 168.494 319.638 169.842C320.065 170.343 320.383 170.929 320.569 171.561C320.756 172.192 320.809 172.856 320.723 173.509L317.267 199.928C330.534 209.778 350.867 205.755 356.867 202.539C356.757 195.054 354.727 187.723 350.973 181.247C350.171 179.846 349.656 178.299 349.456 176.698C349.257 175.096 349.377 173.47 349.811 171.915L351.731 165.051L345.971 148.731L331.514 148.223Z" fill="#455A64"/>
<path opacity="0.3" d="M331.514 148.223L328.634 148.434C328.072 148.476 327.527 148.645 327.04 148.928C326.553 149.21 326.136 149.599 325.821 150.066L319.101 160.059C318.11 161.525 317.627 163.275 317.724 165.041C317.821 166.807 318.493 168.494 319.638 169.842C320.065 170.343 320.383 170.929 320.569 171.561C320.756 172.192 320.809 172.856 320.723 173.509L317.267 199.928C330.534 209.778 350.867 205.755 356.867 202.539C356.757 195.054 354.727 187.723 350.973 181.247C350.171 179.846 349.656 178.299 349.456 176.698C349.257 175.096 349.377 173.47 349.811 171.915L351.731 165.051L345.971 148.731L331.514 148.223Z" fill="white"/>
<path d="M322.826 132.354C321.312 130.815 320.374 128.803 320.168 126.655C319.961 124.507 320.5 122.354 321.693 120.555C321.053 120.302 320.512 119.848 320.152 119.261C319.792 118.674 319.633 117.986 319.698 117.301C319.763 116.615 320.049 115.969 320.512 115.46C320.976 114.951 321.592 114.607 322.269 114.478C323.429 114.418 324.59 114.585 325.686 114.968C327.629 115.318 329.619 115.318 331.562 114.968C333.482 114.69 335.45 114.267 337.418 114.123C339.376 113.917 341.356 114.201 343.178 114.949C344.089 115.332 344.9 115.919 345.549 116.665C346.198 117.41 346.667 118.294 346.922 119.25C348.438 118.837 350.243 119.816 351.213 121.045C352.138 122.327 352.633 123.87 352.624 125.451C352.691 127.016 352.47 128.581 352.394 130.146C352.248 131.712 352.448 133.292 352.979 134.773C353.69 136.472 355.091 137.855 355.542 139.631C355.749 140.454 355.737 141.317 355.508 142.134C355.279 142.952 354.842 143.696 354.238 144.293C353.634 144.889 352.886 145.319 352.066 145.538C351.246 145.758 350.383 145.76 349.562 145.544C349.903 144.294 350.059 143 350.022 141.704C349.869 143.423 348.102 144.776 346.518 145.352C344.848 145.83 343.101 145.983 341.373 145.803L335.286 145.563L328.24 145.304C326.975 145.338 325.716 145.122 324.534 144.671C323.55 144.135 322.725 143.348 322.143 142.391C321.562 141.433 321.244 140.338 321.222 139.218C321.258 136.841 321.804 134.5 322.826 132.354Z" fill="#263238"/>
<path d="M331.514 142.242V154.856L341.67 147.214V137.902L331.514 142.242Z" fill="#FFA8A7"/>
<path d="M341.68 137.902C340.115 142.539 334.442 146.062 331.523 146.763V142.242L341.68 137.902Z" fill="#F28F8F"/>
<path d="M340.451 130.539C340.316 131.345 340.28 132.164 340.346 132.978C340.431 133.594 340.714 134.167 341.152 134.61C341.365 134.818 341.626 134.971 341.913 135.055C342.199 135.139 342.502 135.151 342.794 135.09C342.611 134.277 342.754 133.426 343.193 132.718C343.632 132.01 344.331 131.503 345.14 131.305C345.949 131.108 346.803 131.236 347.519 131.662C348.234 132.088 348.754 132.777 348.966 133.582C349.105 134.149 349.117 134.74 349.003 135.312C348.888 135.884 348.65 136.424 348.304 136.894C347.601 137.83 346.691 138.589 345.645 139.112C345.047 139.31 344.398 139.292 343.812 139.06C343.226 138.829 342.74 138.398 342.438 137.845C339.338 141.771 333.942 144.718 328.893 144.296C327.509 144.217 326.177 143.744 325.053 142.933C323.133 141.454 322.998 139.227 322.758 137.019C322.402 134.226 322.424 131.397 322.826 128.61C323.343 124.725 325.22 121.15 328.125 118.52C329.862 126.853 337.523 129.925 340.451 130.539Z" fill="#FFA8A7"/>
<path d="M329.93 129.589L326.464 133.851L329.69 134.965L329.93 129.589Z" fill="#F28F8F"/>
<path d="M332.637 137.039L329.949 137.893C330.122 138.21 330.393 138.463 330.722 138.612C331.052 138.761 331.42 138.798 331.773 138.719C332.089 138.582 332.348 138.34 332.506 138.033C332.663 137.727 332.71 137.375 332.637 137.039Z" fill="#F28F8F"/>
<path opacity="0.3" d="M332.637 137.039L329.949 137.893C330.122 138.21 330.393 138.463 330.722 138.612C331.052 138.761 331.42 138.798 331.773 138.719C332.089 138.582 332.348 138.34 332.506 138.033C332.663 137.727 332.71 137.375 332.637 137.039Z" fill="black"/>
<path d="M330.89 138.68C331.178 138.766 331.485 138.766 331.773 138.68C332.021 138.583 332.236 138.414 332.389 138.196C332.543 137.977 332.629 137.718 332.637 137.451C332.25 137.391 331.855 137.478 331.531 137.698C331.206 137.917 330.977 138.251 330.89 138.632V138.68Z" fill="#F28F8F"/>
<path d="M334.691 130.472C334.691 130.727 334.59 130.971 334.41 131.151C334.23 131.331 333.986 131.432 333.731 131.432C333.605 131.427 333.481 131.396 333.367 131.343C333.253 131.289 333.15 131.214 333.065 131.12C332.98 131.027 332.914 130.918 332.871 130.8C332.828 130.681 332.809 130.555 332.814 130.429C332.82 130.303 332.851 130.179 332.904 130.065C332.957 129.951 333.033 129.848 333.126 129.763C333.219 129.678 333.328 129.612 333.447 129.569C333.566 129.526 333.692 129.507 333.818 129.512C334.057 129.534 334.28 129.644 334.441 129.822C334.603 130 334.692 130.232 334.691 130.472Z" fill="#263238"/>
<path d="M326.646 129.8C326.646 130.055 326.545 130.299 326.365 130.479C326.185 130.659 325.941 130.76 325.686 130.76C325.556 130.76 325.427 130.734 325.308 130.683C325.188 130.632 325.08 130.556 324.99 130.462C324.9 130.368 324.831 130.256 324.785 130.134C324.74 130.012 324.72 129.882 324.726 129.752C324.733 129.626 324.764 129.502 324.818 129.388C324.872 129.274 324.948 129.172 325.041 129.087C325.135 129.002 325.244 128.937 325.363 128.895C325.482 128.852 325.608 128.834 325.734 128.84C325.981 128.852 326.213 128.959 326.382 129.138C326.552 129.316 326.647 129.554 326.646 129.8Z" fill="#263238"/>
<path d="M325.888 125.941L323.69 127.314C323.611 127.045 323.616 126.759 323.703 126.494C323.791 126.228 323.957 125.995 324.179 125.826C324.446 125.684 324.748 125.619 325.05 125.639C325.352 125.66 325.642 125.764 325.888 125.941Z" fill="#263238"/>
<path d="M334.115 126.2L336.179 127.775C336.283 127.514 336.304 127.229 336.241 126.956C336.177 126.683 336.032 126.436 335.824 126.248C335.571 126.083 335.278 125.991 334.976 125.983C334.675 125.974 334.377 126.049 334.115 126.2Z" fill="#263238"/>
<path d="M331.514 147.214C329.867 148.993 328.498 151.009 327.453 153.195C327.337 153.469 327.3 153.77 327.346 154.064C327.391 154.358 327.518 154.634 327.711 154.86C327.905 155.086 328.157 155.254 328.44 155.345C328.723 155.436 329.026 155.446 329.315 155.374L331.514 154.856V147.214Z" fill="#E0E0E0"/>
<path d="M331.514 154.856L341.67 147.176C341.843 151.976 339.51 156.219 338.061 158.379C337.932 158.574 337.761 158.739 337.562 158.861C337.362 158.983 337.139 159.06 336.906 159.086C336.674 159.113 336.439 159.088 336.217 159.014C335.995 158.94 335.792 158.819 335.622 158.658L331.514 154.856Z" fill="#E0E0E0"/>
<path d="M345.866 148.712C344.906 157.803 348.102 162.267 356.426 178.059C356.426 178.059 354.506 189.685 351.078 196.232C347.68 197.614 345.971 199.966 344.013 200.974C343.935 201.014 343.866 201.068 343.81 201.135C343.754 201.202 343.712 201.28 343.687 201.363C343.662 201.447 343.654 201.534 343.664 201.621C343.673 201.708 343.701 201.791 343.744 201.867C344.541 203.134 346.624 202.165 348.544 201.061C346.106 205.016 345.414 205.669 344.186 206.898C342.957 208.126 343.802 210.133 347.152 210.133C350.502 210.133 352.384 207.522 352.998 206.629C353.613 205.736 357.798 197.355 357.798 197.355L365.363 182.149C365.888 181.091 366.178 179.933 366.213 178.753C366.247 177.573 366.026 176.4 365.565 175.314L356.925 154.962C356.134 153.109 354.816 151.529 353.135 150.418C351.454 149.307 349.484 148.714 347.469 148.712H345.866Z" fill="#FFA8A7"/>
<path d="M345.866 148.712C342.842 158.994 354.611 175.4 356.09 178.031C355.13 180.248 353.786 189.263 353.786 189.263C358.586 189.848 360.294 192.344 360.294 192.344L365.277 183.512C366.06 182.123 366.51 180.572 366.594 178.98C366.677 177.388 366.39 175.798 365.757 174.335C363.366 168.796 359.469 159.762 357.501 155.135C354.534 148.136 348.458 148.645 345.866 148.712Z" fill="#455A64"/>
<path opacity="0.2" d="M345.866 148.712C342.842 158.994 354.611 175.4 356.09 178.031C355.13 180.248 353.786 189.263 353.786 189.263C358.586 189.848 360.294 192.344 360.294 192.344L365.277 183.512C366.06 182.123 366.51 180.572 366.594 178.98C366.677 177.388 366.39 175.798 365.757 174.335C363.366 168.796 359.469 159.762 357.501 155.135C354.534 148.136 348.458 148.645 345.866 148.712Z" fill="white"/>
<path d="M282.822 212.84L280.259 217.64L282.534 219.185C282.669 217.121 282.688 214.885 282.822 212.84Z" fill="#BF706F"/>
<path d="M304.24 231.512C309.578 227.25 313.994 235.247 317.229 244.165C319.149 249.579 321.203 254.859 322.48 258.181C322.892 259.247 323.026 260.401 322.868 261.533C322.71 262.665 322.266 263.739 321.578 264.651L312.064 277.295L307.821 268.117L313.082 260.13L307.725 250.328L304.24 231.512Z" fill="#00A954"/>
<path d="M253.082 273.973C250.221 275.378 247.139 276.278 243.971 276.632C240.794 276.984 237.582 276.428 234.707 275.029C231.812 273.551 229.608 271.003 228.563 267.925C229.011 267.428 229.619 267.102 230.281 267.004C230.943 266.906 231.619 267.041 232.192 267.387C234.972 268.933 238.248 269.323 241.312 268.472C240.35 267.488 239.488 266.411 238.739 265.256C238.365 264.68 238.029 263.931 238.403 263.336C238.575 263.126 238.808 262.975 239.07 262.905C239.331 262.834 239.609 262.847 239.862 262.943C240.364 263.147 240.823 263.443 241.216 263.816C243.531 265.686 246.265 266.968 249.184 267.551C250.394 269.576 251.891 271.957 253.082 273.973Z" fill="#D18786"/>
<path d="M269.594 397.601C270.385 398.213 271.384 398.492 272.378 398.379C275.354 398.374 278.316 397.961 281.181 397.15C282.808 396.729 284.369 396.083 285.818 395.23C287.486 394.181 288.884 392.754 289.898 391.064C289.519 389.207 289.297 387.322 289.235 385.429C286.797 385.429 284.272 385.429 281.834 385.429V389.403C278.126 391.873 274.012 393.671 269.68 394.712C269.476 394.892 269.312 395.114 269.2 395.362C269.088 395.61 269.03 395.88 269.03 396.152C269.03 396.424 269.088 396.694 269.2 396.942C269.312 397.19 269.476 397.412 269.68 397.592L269.594 397.601Z" fill="#D18786"/>
<path d="M290.474 393.455C290.253 392.658 290.061 391.851 289.898 391.045C288.884 392.735 287.486 394.162 285.818 395.211C284.369 396.064 282.808 396.71 281.181 397.131C278.316 397.942 275.354 398.355 272.378 398.36C271.384 398.473 270.385 398.194 269.594 397.583C269.389 397.402 269.226 397.181 269.114 396.932C269.002 396.684 268.944 396.415 268.944 396.143C268.944 395.87 269.002 395.601 269.114 395.353C269.226 395.104 269.389 394.883 269.594 394.703L268.634 394.943C267.457 395.099 266.319 395.466 265.274 396.027C264.755 396.318 264.34 396.762 264.084 397.298C263.827 397.834 263.743 398.437 263.843 399.023C264.051 399.521 264.364 399.968 264.762 400.333C265.16 400.697 265.633 400.971 266.147 401.135C269.945 402.808 274.224 403.033 278.176 401.768C280.605 400.971 282.976 399.608 285.51 399.685C286.97 399.685 288.573 400.203 289.802 399.407C290.232 399.082 290.575 398.656 290.801 398.167C291.027 397.678 291.129 397.141 291.098 396.603C291.032 395.531 290.822 394.471 290.474 393.455Z" fill="#FFA200"/>
<path d="M299.661 369.627C299.056 369.692 298.489 369.954 298.047 370.372C297.605 370.79 297.312 371.341 297.213 371.941C297.136 373.102 298.038 374.072 298.874 374.888L302.07 378.008C302.895 378.954 303.945 379.677 305.123 380.11C305.739 380.259 306.381 380.268 307.001 380.135C307.621 380.002 308.203 379.731 308.704 379.342C309.3 378.879 309.786 378.289 310.125 377.614C310.019 376.894 309.933 376.165 309.798 375.445C309.695 374.518 309.366 373.631 308.838 372.862C307.821 371.595 306.17 371.422 304.672 371.278C303.578 371.079 302.572 370.545 301.792 369.752C301.096 369.578 300.373 369.536 299.661 369.627Z" fill="#D18786"/>
<path d="M310.125 377.614C309.786 378.289 309.3 378.879 308.704 379.342C308.203 379.731 307.621 380.002 307.001 380.135C306.381 380.268 305.739 380.259 305.123 380.11C303.945 379.677 302.895 378.954 302.07 378.008L298.874 374.888C298.038 374.072 297.136 373.102 297.213 371.941C297.312 371.341 297.605 370.79 298.047 370.372C298.489 369.954 299.056 369.693 299.661 369.627C300.379 369.533 301.109 369.576 301.811 369.752L301.485 369.522C300.666 368.945 299.791 368.453 298.874 368.053C297.898 367.549 296.777 367.403 295.706 367.64C295.07 367.884 294.522 368.315 294.133 368.874C293.744 369.434 293.533 370.098 293.526 370.779C293.54 372.151 294.025 373.476 294.899 374.533C295.783 375.566 296.746 376.529 297.779 377.413C299.078 378.701 300.275 380.087 301.36 381.56C302.122 382.687 302.986 383.741 303.942 384.709C304.915 385.686 306.231 386.244 307.61 386.264C308.18 386.252 308.736 386.084 309.216 385.777C309.697 385.471 310.085 385.038 310.336 384.526C310.57 383.842 310.652 383.115 310.576 382.395C310.506 380.795 310.356 379.199 310.125 377.614Z" fill="#FFA200"/>
<path d="M276.995 283.496C274.749 311.864 276.429 341.413 276.429 341.413C276.429 341.413 280.355 373.093 280.922 386.437C284.118 389.595 290.262 386.437 290.262 386.437C292.019 363.263 296.656 354.344 291.597 339.915L295.216 306.68L296.656 333.359L302.128 374.955C305.459 377.365 309.76 374.955 309.76 374.955C311.536 354.565 315.702 345.301 309.76 328.722C316.874 295.717 314.56 283.179 313.6 279.848L276.995 283.496Z" fill="#00A954"/>
<path opacity="0.4" d="M276.995 283.496C274.749 311.864 276.429 341.413 276.429 341.413C276.429 341.413 280.355 373.093 280.922 386.437C284.118 389.595 290.262 386.437 290.262 386.437C292.019 363.263 296.656 354.344 291.597 339.915L295.216 306.68L296.656 333.359L302.128 374.955C305.459 377.365 309.76 374.955 309.76 374.955C311.536 354.565 315.702 345.301 309.76 328.722C316.874 295.717 314.56 283.179 313.6 279.848L276.995 283.496Z" fill="black"/>
<path opacity="0.1" d="M276.995 283.496C274.749 311.864 276.429 341.413 276.429 341.413C276.429 341.413 280.355 373.093 280.922 386.437C284.118 389.595 290.262 386.437 290.262 386.437C292.019 363.263 296.656 354.344 291.597 339.915L295.216 306.68L296.656 333.359L302.128 374.955C305.459 377.365 309.76 374.955 309.76 374.955C311.536 354.565 315.702 345.301 309.76 328.722C316.874 295.717 314.56 283.179 313.6 279.848L276.995 283.496Z" fill="white"/>
<path opacity="0.2" d="M304.24 231.512C309.578 227.25 313.994 235.247 317.229 244.165C319.149 249.579 321.203 254.859 322.48 258.181C322.892 259.247 323.026 260.401 322.868 261.533C322.71 262.665 322.266 263.739 321.578 264.651L312.064 277.295L307.821 268.117L313.082 260.13L307.725 250.328L304.24 231.512Z" fill="white"/>
<path d="M286.538 234.2C291.338 232.722 305.21 229.688 308.733 232.866C311.805 235.64 313.802 245.202 309.693 257.48C308.481 260.983 308.657 264.816 310.182 268.194C311.981 272.066 313.386 276.108 314.378 280.261C303.213 291.637 283.552 289.861 276.112 285.061C276.209 275.959 276.992 266.877 278.454 257.893L286.538 234.2Z" fill="#00A954"/>
<path opacity="0.4" d="M286.538 234.2C291.338 232.722 305.21 229.688 308.733 232.866C311.805 235.64 313.802 245.202 309.693 257.48C308.481 260.983 308.657 264.816 310.182 268.194C311.981 272.066 313.386 276.108 314.378 280.261C303.213 291.637 283.552 289.861 276.112 285.061C276.209 275.959 276.992 266.877 278.454 257.893L286.538 234.2Z" fill="white"/>
<path opacity="0.1" d="M286.538 234.2C291.338 232.722 305.21 229.688 308.733 232.866C311.805 235.64 313.802 245.202 309.693 257.48C308.481 260.983 308.657 264.816 310.182 268.194C311.981 272.066 313.386 276.108 314.378 280.261C303.213 291.637 283.552 289.861 276.112 285.061C276.209 275.959 276.992 266.877 278.454 257.893L286.538 234.2Z" fill="white"/>
<path d="M283.206 209.067C281.915 208.309 280.862 207.204 280.167 205.876C279.473 204.549 279.166 203.054 279.28 201.56C279.453 200.037 279.986 198.577 280.834 197.3C281.681 196.024 282.82 194.966 284.157 194.216C285.505 193.487 286.987 193.039 288.513 192.899C290.04 192.759 291.578 192.929 293.037 193.4C295.61 194.206 297.894 195.848 300.534 196.376C302.829 196.837 305.334 196.443 307.466 197.336C310.182 198.45 311.766 201.339 312.458 204.2C313.433 208.239 313.076 212.486 311.44 216.306C309.315 220.567 306.04 224.149 301.984 226.645C298.326 231.013 291.818 228.162 289.062 224.456C286.307 220.75 283.206 209.067 283.206 209.067Z" fill="#7A4140"/>
<path d="M284.867 205.88C283.254 208.362 282.266 211.198 281.987 214.145C281.71 217.078 281.669 220.028 281.862 222.968C281.794 224.112 282.075 225.251 282.669 226.232C283.128 226.727 283.692 227.113 284.32 227.36C284.948 227.608 285.624 227.711 286.298 227.662C287.642 227.662 288.87 227.662 290.33 227.614L290.627 233.71C295.427 236.379 300.842 234.517 302.243 232.616L302.003 226.645C294.525 228.056 290.483 225.493 289.782 220.885C290.541 221.026 291.321 220.999 292.068 220.805C292.814 220.611 293.509 220.255 294.102 219.761C294.632 219.229 295.035 218.584 295.281 217.874C295.527 217.165 295.61 216.408 295.523 215.662C295.456 214.992 295.184 214.359 294.746 213.848C294.35 213.459 293.851 213.192 293.308 213.079C292.765 212.967 292.201 213.014 291.683 213.214C290.65 213.617 289.795 214.376 289.274 215.355C288.757 216.331 288.379 217.375 288.15 218.456C287.712 218.1 287.391 217.62 287.23 217.079C287.069 216.537 287.075 215.96 287.248 215.422C287.45 214.875 287.853 214.347 287.766 213.761C287.68 213.176 286.998 212.705 286.691 212.12C286.442 211.605 286.401 211.013 286.576 210.469C286.753 209.936 286.995 209.426 287.296 208.952C286.626 207.825 285.809 206.792 284.867 205.88Z" fill="#D18786"/>
<path d="M313.667 223.313C311.008 220.548 308.972 217.245 307.696 213.627C306.424 209.989 306.377 206.034 307.562 202.366C308.233 200.301 309.478 198.47 311.152 197.086C311.989 196.402 312.962 195.901 314.005 195.618C315.049 195.336 316.141 195.276 317.21 195.445C320.579 196.059 322.97 199.285 323.603 202.683C324.237 206.081 323.354 209.509 322.259 212.753C320.896 216.805 317.766 221.797 318.304 227.518C316.614 226.284 315.06 224.875 313.667 223.313Z" fill="#995E5D"/>
<path d="M286.538 234.2C277.744 230.36 276.726 238.741 271.898 247.64C268.941 253.4 265.293 258.901 265.293 258.901C260.214 262.12 254.725 264.638 248.973 266.389C247.053 271.438 251.498 276.402 251.498 276.402L270.381 268.165C273.585 266.767 276.285 264.422 278.118 261.445C284.954 250.443 289.936 242.629 286.538 234.2Z" fill="#00A954"/>
<path opacity="0.2" d="M286.538 234.2C277.744 230.36 276.726 238.741 271.898 247.64C268.941 253.4 265.293 258.901 265.293 258.901C260.214 262.12 254.725 264.638 248.973 266.389C247.053 271.438 251.498 276.402 251.498 276.402L270.381 268.165C273.585 266.767 276.285 264.422 278.118 261.445C284.954 250.443 289.936 242.629 286.538 234.2Z" fill="white"/>
<path opacity="0.3" d="M307.427 292.798C304.333 295.486 300.371 296.966 296.272 296.965L295.216 306.68L296.176 324.498L298.096 298.731C299.987 298.474 301.801 297.811 303.411 296.786C305.022 295.762 306.392 294.402 307.427 292.798Z" fill="black"/>
<path d="M131.334 257.432L129.069 262.232L134.483 268.194L134.09 282.431L116.627 267.263C115.843 266.582 115.305 265.663 115.095 264.646C114.885 263.63 115.016 262.572 115.466 261.637L120.794 250.559L131.334 257.432Z" fill="#995E5D"/>
<path d="M125.949 266.475C127.321 265.33 128.392 263.867 129.069 262.213L130.422 263.701C129.351 265.174 127.745 266.17 125.949 266.475Z" fill="#7A4140"/>
<path d="M131.766 258.584C124.835 257.979 120.102 250.789 120.102 250.789C126.314 238.078 131.728 223.909 142.566 227.317L131.766 258.584Z" fill="#00A954"/>
<path opacity="0.4" d="M131.766 258.584C124.835 257.979 120.102 250.789 120.102 250.789C126.314 238.078 131.728 223.909 142.566 227.317L131.766 258.584Z" fill="black"/>
<path d="M158.848 408.037C159.501 410.101 161.728 411.282 163.926 411.455C166.125 411.628 168.208 411.013 170.339 410.629C175.139 409.765 179.709 410.629 184.461 410.514C186.021 410.523 187.577 410.352 189.098 410.005C190.633 409.656 192.023 408.837 193.072 407.663C193.672 406.953 194.067 406.094 194.214 405.176C194.302 405.861 194.246 406.556 194.05 407.217C193.853 407.879 193.52 408.491 193.072 409.016C192.017 410.182 190.63 410.997 189.098 411.349C187.577 411.701 186.021 411.872 184.461 411.858C179.709 411.973 175.11 411.109 170.339 411.973C168.208 412.367 166.077 412.933 163.926 412.799C161.776 412.664 159.501 411.445 158.848 409.381C158.645 408.667 158.589 407.919 158.685 407.183C158.706 407.473 158.761 407.76 158.848 408.037Z" fill="#263238"/>
<path d="M158.973 404.082C159.261 402.642 159.558 401.202 159.846 399.752C159.954 398.98 160.205 398.234 160.586 397.554C160.775 397.213 161.054 396.93 161.393 396.736C161.731 396.541 162.116 396.442 162.506 396.45C165.117 396.104 168.794 395.154 170.963 396.651C174.394 398.995 178.484 400.182 182.637 400.04C184.797 399.954 186.957 399.512 189.098 399.781C191.238 400.05 193.466 401.231 194.109 403.295C194.293 403.918 194.329 404.575 194.214 405.215C194.067 406.132 193.672 406.992 193.072 407.701C192.023 408.876 190.633 409.694 189.098 410.043C187.577 410.391 186.021 410.561 184.461 410.552C179.709 410.658 175.11 409.803 170.339 410.667C168.208 411.051 166.077 411.627 163.926 411.493C161.776 411.359 159.501 410.139 158.848 408.075C158.764 407.813 158.709 407.543 158.685 407.269C158.61 406.198 158.707 405.122 158.973 404.082Z" fill="#455A64"/>
<path d="M171.597 392.12L171.779 397.765C171.8 398.343 171.596 398.907 171.209 399.337C170.822 399.767 170.283 400.029 169.706 400.069C167.813 400.209 165.912 400.189 164.022 400.011C163.262 399.935 162.554 399.589 162.026 399.036C161.498 398.483 161.184 397.76 161.142 396.997L160.922 392.831L171.597 392.12Z" fill="#FFA8A7"/>
<path opacity="0.4" d="M171.597 392.12L171.779 397.765C171.8 398.343 171.596 398.907 171.209 399.337C170.822 399.767 170.283 400.029 169.706 400.069C167.813 400.209 165.912 400.189 164.022 400.011C163.262 399.935 162.554 399.589 162.026 399.036C161.498 398.483 161.184 397.76 161.142 396.997L160.922 392.831L171.597 392.12Z" fill="black"/>
<path d="M134.752 389.106C134.773 389.941 135.036 390.751 135.51 391.439C136.179 392.253 137.127 392.787 138.17 392.936C139.415 393.15 140.695 393.008 141.863 392.528C143.031 392.047 144.04 391.247 144.774 390.219C145.485 389.192 145.888 387.983 146.56 386.927C147.578 385.522 148.832 384.303 150.266 383.327C151.703 382.352 152.966 381.141 154 379.746C154.497 379.062 154.821 378.269 154.947 377.434C155.072 376.598 154.994 375.745 154.72 374.946C154.852 375.137 154.968 375.34 155.066 375.551C155.382 376.387 155.487 377.288 155.369 378.174C155.252 379.061 154.917 379.904 154.394 380.629C153.331 382.066 152.033 383.312 150.554 384.315C149.089 385.324 147.812 386.582 146.781 388.031C146.09 389.115 145.677 390.363 144.957 391.419C144.215 392.473 143.191 393.296 142.002 393.792C140.813 394.288 139.507 394.437 138.237 394.223C137.169 394.068 136.198 393.516 135.52 392.677C134.912 391.713 134.635 390.577 134.733 389.442C134.733 389.346 134.742 389.24 134.752 389.106Z" fill="#263238"/>
<path d="M136.461 382.03C138.179 379.016 141.712 376.827 144.448 374.706C145.941 373.408 147.779 372.571 149.738 372.296C150.716 372.18 151.707 372.359 152.585 372.808C153.462 373.258 154.185 373.959 154.662 374.821C154.677 374.874 154.696 374.925 154.72 374.974C154.994 375.774 155.072 376.627 154.947 377.462C154.821 378.298 154.497 379.091 154 379.774C152.966 381.17 151.703 382.381 150.266 383.355C148.832 384.332 147.578 385.55 146.56 386.955C145.888 388.011 145.485 389.221 144.774 390.248C144.04 391.276 143.031 392.076 141.863 392.556C140.695 393.037 139.415 393.179 138.17 392.965C137.127 392.815 136.179 392.281 135.51 391.467C135.036 390.78 134.773 389.969 134.752 389.134C134.738 388.866 134.738 388.597 134.752 388.328C134.788 386.119 135.376 383.955 136.461 382.03Z" fill="#455A64"/>
<path d="M143.92 379.419V384.546C142.661 385.138 141.277 385.414 139.887 385.353C138.498 385.291 137.144 384.892 135.942 384.191L135.462 379.583L143.92 379.419Z" fill="#FFA8A7"/>
<path opacity="0.4" d="M143.92 379.419V384.546C142.661 385.138 141.277 385.414 139.887 385.353C138.498 385.291 137.144 384.892 135.942 384.191L135.462 379.583L143.92 379.419Z" fill="black"/>
<path d="M134.09 286.376C132.554 290.984 133.034 315.176 133.926 336.21C132.458 346.443 132.506 368.61 134.435 384.642C134.435 384.642 139.782 387.589 147.222 384.891L151.754 336.248L152.8 311.24C152.8 311.24 154.72 333.426 156.88 347.653C156.093 358.098 157.84 378.075 159.357 399.378C159.357 399.378 167.584 404.178 175.754 398.917C178.634 351.819 173.968 304.126 173.027 288.68L134.09 286.376Z" fill="#37474F"/>
<path opacity="0.3" d="M152.166 326.466L153.021 306.076C147.75 306.076 142.864 302.14 139.139 298.396C142.71 304.76 149.68 307.64 149.68 307.64L152.166 326.466Z" fill="black"/>
<path d="M173.824 250.04V289.967C150.314 299.816 135.078 290.927 133.014 286.29C134.09 270.037 130.25 251.019 130.547 242.946C130.845 234.872 131.834 225.762 144.362 227.586L157.677 228.882L164.397 230.523L173.824 250.04Z" fill="#00A954"/>
<path opacity="0.3" d="M173.824 250.04V289.967C150.314 299.816 135.078 290.927 133.014 286.29C134.09 270.037 130.25 251.019 130.547 242.946C130.845 234.872 131.834 225.762 144.362 227.586L157.677 228.882L164.397 230.523L173.824 250.04Z" fill="black"/>
<path d="M186.304 247.832L190.797 252.498L201.52 238.242C200.071 234.452 199.185 230.471 198.89 226.424C198.882 226.252 198.909 226.079 198.97 225.918C199.03 225.756 199.123 225.609 199.243 225.484C199.362 225.359 199.505 225.26 199.664 225.192C199.823 225.124 199.994 225.09 200.166 225.09C200.407 225.09 200.642 225.158 200.844 225.287C201.047 225.417 201.208 225.601 201.309 225.819L203.306 230.005C203.591 229.909 203.851 229.75 204.066 229.539C204.28 229.327 204.444 229.07 204.544 228.786L204.938 227.682C205.198 226.941 205.331 226.162 205.331 225.378V222.623C205.335 222.24 205.439 221.864 205.631 221.533C205.824 221.202 206.099 220.926 206.429 220.733C206.76 220.54 207.135 220.435 207.518 220.43C207.901 220.425 208.279 220.519 208.614 220.703C209.866 221.375 210.972 222.289 211.869 223.391C212.729 224.441 213.197 225.758 213.194 227.115V230.84C213.195 231.799 213.029 232.751 212.704 233.653L210.784 238.991C210.605 239.478 210.38 239.947 210.112 240.392L196.24 263.653C195.742 264.491 195.065 265.209 194.257 265.755C193.449 266.301 192.531 266.661 191.567 266.81C190.603 266.959 189.619 266.892 188.684 266.615C187.749 266.338 186.887 265.858 186.16 265.208L177.318 257.355L186.304 247.832Z" fill="#995E5D"/>
<path d="M193.542 258.229C193.1 256.117 192.159 254.142 190.797 252.469L192.035 250.827C192.966 252.584 194.282 255.944 193.542 258.229Z" fill="#995E5D"/>
<path d="M193.542 258.229C193.1 256.117 192.159 254.142 190.797 252.469L192.035 250.827C192.966 252.584 194.282 255.944 193.542 258.229Z" fill="#7A4140"/>
<path d="M187.418 247.861L174.784 235.439C171.974 232.673 168.322 230.924 164.406 230.466H164.186C158.838 242.178 165.904 247.89 165.904 247.89L177.645 258.68C182.079 256.342 185.541 252.509 187.418 247.861Z" fill="#00A954"/>
<path opacity="0.4" d="M187.418 247.861L174.784 235.439C171.974 232.673 168.322 230.924 164.406 230.466H164.186C158.838 242.178 165.904 247.89 165.904 247.89L177.645 258.68C182.079 256.342 185.541 252.509 187.418 247.861Z" fill="black"/>
<path d="M164.08 201.426C164.322 201.142 164.477 200.794 164.525 200.424C164.572 200.054 164.511 199.678 164.349 199.343C164.68 199.443 165.03 199.47 165.373 199.422C165.716 199.374 166.045 199.252 166.336 199.064C166.623 198.891 166.855 198.64 167.008 198.342C167.161 198.044 167.227 197.709 167.2 197.375C167.166 197.04 167.023 196.725 166.792 196.481C166.561 196.236 166.255 196.074 165.923 196.021C166.541 195.879 167.083 195.509 167.44 194.984C167.819 194.478 167.99 193.846 167.92 193.218C167.809 192.641 167.543 192.106 167.151 191.67C166.758 191.233 166.254 190.912 165.693 190.741C164.563 190.418 163.376 190.352 162.218 190.549C162.403 189.918 162.359 189.241 162.091 188.639C161.824 188.038 161.352 187.551 160.758 187.266C160.226 187.081 159.656 187.032 159.099 187.122C158.543 187.213 158.018 187.44 157.571 187.784C156.684 188.479 155.921 189.32 155.315 190.271C154.047 189.583 152.643 189.18 151.203 189.09C149.763 189 148.32 189.225 146.976 189.75C145.632 190.274 144.418 191.086 143.419 192.127C142.421 193.169 141.661 194.416 141.194 195.781C140.138 196.129 139.184 196.731 138.415 197.532C137.645 198.333 137.083 199.311 136.778 200.379C136.254 202.525 136.401 204.781 137.2 206.84C137.986 208.885 138.997 210.836 140.214 212.658L141.885 215.298C142.586 216.402 144.371 219.138 145.062 220.251C146.626 220.975 148.345 221.298 150.065 221.191C151.785 221.084 153.451 220.55 154.912 219.637C157.776 217.734 159.984 214.995 161.238 211.794C162.531 208.442 163.483 204.968 164.08 201.426Z" fill="#263238"/>
<path d="M149.258 221.374C147.765 221.4 146.288 221.071 144.947 220.414L143.382 217.976C142.758 217.016 142.125 216.056 141.77 215.461L141.683 215.336L140.08 212.734C138.853 210.905 137.836 208.944 137.046 206.888C136.257 204.795 136.123 202.512 136.662 200.341C136.967 199.258 137.531 198.265 138.306 197.449C139.08 196.633 140.042 196.018 141.107 195.656C141.615 194.299 142.397 193.06 143.405 192.018C144.412 190.976 145.624 190.152 146.963 189.598C148.309 189.094 149.745 188.876 151.18 188.958C152.615 189.041 154.017 189.423 155.296 190.078C155.894 189.153 156.643 188.335 157.514 187.659C157.981 187.301 158.53 187.064 159.111 186.97C159.693 186.876 160.288 186.928 160.845 187.122C161.435 187.41 161.913 187.886 162.205 188.474C162.497 189.063 162.586 189.732 162.458 190.376C163.564 190.207 164.695 190.283 165.77 190.597C166.359 190.774 166.888 191.111 167.298 191.57C167.708 192.03 167.983 192.593 168.093 193.198C168.14 193.536 168.119 193.88 168.032 194.21C167.945 194.539 167.792 194.848 167.584 195.118C167.295 195.527 166.909 195.857 166.461 196.078C166.718 196.205 166.94 196.393 167.108 196.626C167.275 196.858 167.383 197.129 167.421 197.413C167.444 197.778 167.367 198.144 167.198 198.468C167.029 198.793 166.774 199.066 166.461 199.256C165.917 199.593 165.269 199.723 164.637 199.621C164.752 199.945 164.778 200.294 164.712 200.632C164.647 200.97 164.491 201.284 164.262 201.541C163.655 205.079 162.69 208.546 161.382 211.89C160.123 215.126 157.893 217.892 154.998 219.81C153.267 220.853 151.279 221.395 149.258 221.374ZM145.12 220.136C146.656 220.844 148.345 221.157 150.033 221.048C151.72 220.939 153.355 220.411 154.787 219.512C157.616 217.614 159.801 214.903 161.056 211.736C162.36 208.395 163.325 204.931 163.936 201.397V201.349C164.163 201.089 164.307 200.768 164.35 200.426C164.393 200.083 164.332 199.736 164.176 199.429L164.022 199.103L164.368 199.218C164.677 199.311 165.003 199.336 165.323 199.291C165.643 199.246 165.949 199.133 166.221 198.958C166.484 198.798 166.698 198.568 166.839 198.293C166.979 198.019 167.041 197.711 167.018 197.403C166.981 197.104 166.85 196.823 166.642 196.604C166.435 196.385 166.163 196.237 165.866 196.184L164.762 196.059L165.856 195.896C166.434 195.768 166.942 195.425 167.277 194.936C167.458 194.703 167.591 194.436 167.669 194.151C167.746 193.866 167.766 193.568 167.728 193.275C167.624 192.728 167.371 192.219 166.996 191.806C166.622 191.393 166.141 191.091 165.606 190.933C164.498 190.62 163.334 190.558 162.198 190.751H161.958L162.045 190.52C162.208 189.923 162.16 189.288 161.908 188.723C161.656 188.157 161.216 187.697 160.662 187.419C160.152 187.248 159.608 187.205 159.077 187.294C158.547 187.383 158.046 187.6 157.619 187.928C156.744 188.613 155.991 189.44 155.392 190.376L155.325 190.482L155.21 190.424C153.957 189.764 152.579 189.376 151.167 189.285C149.754 189.194 148.338 189.402 147.011 189.896C145.696 190.434 144.509 191.242 143.525 192.267C142.541 193.292 141.783 194.512 141.299 195.848V195.925H141.222C140.195 196.271 139.266 196.86 138.515 197.642C137.765 198.424 137.215 199.377 136.912 200.418C136.39 202.531 136.52 204.754 137.286 206.792C138.076 208.817 139.087 210.749 140.301 212.552C140.819 213.387 141.347 214.222 141.875 215.058L141.962 215.192L143.574 217.698C144.179 218.658 144.774 219.579 145.12 220.136Z" fill="#272525"/>
<path d="M165.587 208.271L167.699 211.928L165.616 212.696C165.683 211.221 165.674 209.744 165.587 208.271Z" fill="#7A4140"/>
<path d="M164.08 201.426C164.858 203.638 165.367 205.936 165.597 208.271C165.674 209.745 165.674 211.222 165.597 212.696C165.506 214.772 165.265 216.838 164.877 218.879C164.734 219.997 164.315 221.063 163.658 221.979C162.781 222.917 161.571 223.472 160.288 223.525C159.017 223.571 157.745 223.448 156.506 223.16V229.16C151.955 230.235 148.192 230.706 144.621 227.96L144.995 220.28C147.186 220.579 149.417 220.225 151.408 219.263C154.547 217.563 155.43 214.856 154.989 213.339C154.71 213.71 154.328 213.989 153.891 214.143C153.453 214.296 152.98 214.318 152.531 214.203C152.099 214.087 151.695 213.884 151.343 213.607C150.992 213.33 150.7 212.984 150.486 212.591C150.072 211.796 149.814 210.929 149.728 210.037C149.502 208.96 149.666 207.837 150.189 206.869C150.591 206.332 151.147 205.929 151.783 205.715C152.419 205.501 153.105 205.485 153.75 205.669C155.043 206.075 156.123 206.976 156.755 208.175C156.954 208.547 157.131 208.932 157.283 209.327C157.339 209.477 157.445 209.604 157.583 209.687C157.721 209.77 157.883 209.803 158.042 209.782C158.202 209.761 158.349 209.686 158.461 209.57C158.572 209.455 158.641 209.304 158.656 209.144C158.822 207.423 158.509 205.689 157.754 204.133C158.276 204.391 158.851 204.523 159.434 204.517C159.741 204.518 160.045 204.452 160.323 204.322C160.602 204.193 160.849 204.004 161.046 203.768C161.236 203.528 161.345 203.234 161.355 202.928C161.365 202.622 161.277 202.321 161.104 202.069C162.63 202.799 164.08 201.426 164.08 201.426Z" fill="#995E5D"/>
</svg>
