<svg width="337" height="56" viewBox="0 0 337 56" fill="none" xmlns="http://www.w3.org/2000/svg">
<path d="M49 5.5C49 4.39543 48.1046 3.5 47 3.5H40.5C39.3954 3.5 38.5 4.39543 38.5 5.5V52.5H49V5.5Z" fill="#FFA200"/>
<path d="M38.5 16.6999C38.5 15.5954 37.6046 14.7 36.5 14.7H30C28.8954 14.7 28 15.5954 28 16.7V52.5H38.5V16.6999Z" fill="#009047"/>
<path d="M28 28.6001C28 27.4955 27.1046 26.6001 26 26.6001H19.5C18.3954 26.6001 17.5 27.4955 17.5 28.6001V52.5001H28V28.6001Z" fill="#FFA200"/>
<path d="M17.5 35.6001C17.5 34.4955 16.6046 33.6001 15.5 33.6001H9C7.89543 33.6001 7 34.4955 7 35.6001V52.5001H17.5V35.6001Z" fill="#009047"/>
<path d="M96.512 36.4361C96.704 36.4361 96.896 36.4761 97.088 36.5561C97.28 36.6201 97.464 36.7401 97.64 36.9161L100.856 40.3001C99.448 42.1401 97.68 43.5321 95.552 44.4761C93.44 45.4041 90.936 45.8681 88.04 45.8681C85.384 45.8681 83 45.4201 80.888 44.5241C78.792 43.6121 77.008 42.3641 75.536 40.7801C74.08 39.1801 72.96 37.2921 72.176 35.1161C71.392 32.9241 71 30.5481 71 27.9881C71 25.3801 71.424 22.9881 72.272 20.8121C73.12 18.6201 74.312 16.7321 75.848 15.1481C77.384 13.5641 79.224 12.3321 81.368 11.4521C83.512 10.5721 85.872 10.1321 88.448 10.1321C89.76 10.1321 90.992 10.2521 92.144 10.4921C93.312 10.7161 94.4 11.0361 95.408 11.4521C96.416 11.8521 97.344 12.3401 98.192 12.9161C99.04 13.4921 99.792 14.1161 100.448 14.7881L97.712 18.4601C97.536 18.6841 97.328 18.8921 97.088 19.0841C96.848 19.2601 96.512 19.3481 96.08 19.3481C95.792 19.3481 95.52 19.2841 95.264 19.1561C95.008 19.0281 94.736 18.8761 94.448 18.7001C94.16 18.5081 93.84 18.3081 93.488 18.1001C93.152 17.8761 92.744 17.6761 92.264 17.5001C91.8 17.3081 91.248 17.1481 90.608 17.0201C89.984 16.8921 89.248 16.8281 88.4 16.8281C87.056 16.8281 85.824 17.0761 84.704 17.5721C83.6 18.0681 82.64 18.7961 81.824 19.7561C81.024 20.7001 80.4 21.8681 79.952 23.2601C79.52 24.6361 79.304 26.2121 79.304 27.9881C79.304 29.7801 79.544 31.3721 80.024 32.7641C80.52 34.1561 81.184 35.3321 82.016 36.2921C82.864 37.2361 83.848 37.9561 84.968 38.4521C86.088 38.9481 87.288 39.1961 88.568 39.1961C89.304 39.1961 89.976 39.1641 90.584 39.1001C91.192 39.0201 91.76 38.9001 92.288 38.7401C92.816 38.5641 93.312 38.3401 93.776 38.0681C94.24 37.7801 94.712 37.4201 95.192 36.9881C95.384 36.8281 95.592 36.7001 95.816 36.6041C96.04 36.4921 96.272 36.4361 96.512 36.4361Z" fill="white"/>
<path d="M118.498 30.0521C118.498 29.4601 118.417 28.8841 118.257 28.3241C118.113 27.7641 117.866 27.2681 117.514 26.8361C117.177 26.3881 116.729 26.0281 116.17 25.7561C115.61 25.4841 114.93 25.3481 114.13 25.3481C112.722 25.3481 111.618 25.7561 110.818 26.5721C110.018 27.3721 109.49 28.5321 109.234 30.0521H118.498ZM109.138 34.3721C109.378 36.4521 110.01 37.9641 111.034 38.9081C112.058 39.8361 113.377 40.3001 114.993 40.3001C115.857 40.3001 116.602 40.1961 117.226 39.9881C117.85 39.7801 118.402 39.5481 118.882 39.2921C119.378 39.0361 119.826 38.8041 120.226 38.5961C120.642 38.3881 121.074 38.2841 121.521 38.2841C122.113 38.2841 122.562 38.5001 122.866 38.9321L125.026 41.5961C124.257 42.4761 123.426 43.1961 122.53 43.7561C121.65 44.3001 120.737 44.7321 119.793 45.0521C118.866 45.3561 117.93 45.5641 116.986 45.6761C116.057 45.8041 115.17 45.8681 114.322 45.8681C112.578 45.8681 110.938 45.5881 109.402 45.0281C107.882 44.4521 106.546 43.6041 105.394 42.4841C104.257 41.3641 103.354 39.9721 102.681 38.3081C102.025 36.6441 101.698 34.7081 101.698 32.5001C101.698 30.8361 101.978 29.2601 102.538 27.7721C103.113 26.2841 103.93 24.9801 104.986 23.8601C106.057 22.7401 107.345 21.8521 108.849 21.1961C110.369 20.5401 112.082 20.2121 113.986 20.2121C115.633 20.2121 117.138 20.4681 118.498 20.9801C119.874 21.4921 121.049 22.2361 122.026 23.2121C123.018 24.1881 123.786 25.3881 124.33 26.8121C124.89 28.2201 125.169 29.8201 125.169 31.6121C125.169 32.1721 125.146 32.6281 125.098 32.9801C125.05 33.3321 124.962 33.6121 124.833 33.8201C124.705 34.0281 124.529 34.1721 124.306 34.2521C124.097 34.3321 123.826 34.3721 123.49 34.3721H109.138Z" fill="white"/>
<path d="M135.757 23.2841C136.237 22.8361 136.732 22.4201 137.244 22.0361C137.757 21.6521 138.301 21.3321 138.877 21.0761C139.469 20.8041 140.101 20.5961 140.772 20.4521C141.46 20.2921 142.204 20.2121 143.005 20.2121C144.365 20.2121 145.564 20.4521 146.604 20.9321C147.66 21.3961 148.549 22.0521 149.269 22.9001C149.989 23.7321 150.533 24.7321 150.901 25.9001C151.269 27.0521 151.452 28.3081 151.452 29.6681V45.4841H144.012V29.6681C144.012 28.4521 143.732 27.5081 143.173 26.8361C142.613 26.1481 141.788 25.8041 140.701 25.8041C139.884 25.8041 139.117 25.9801 138.396 26.3321C137.692 26.6681 137.005 27.1321 136.333 27.7241V45.4841H128.893V20.5961H133.5C134.429 20.5961 135.036 21.0121 135.325 21.8441L135.757 23.2841Z" fill="white"/>
<path d="M172.084 26.0441C171.892 26.3481 171.684 26.5641 171.46 26.6921C171.252 26.8201 170.979 26.8841 170.644 26.8841C170.292 26.8841 169.939 26.8121 169.588 26.6681C169.236 26.5081 168.852 26.3401 168.436 26.1641C168.035 25.9881 167.579 25.8281 167.067 25.6841C166.555 25.5241 165.971 25.4441 165.315 25.4441C164.371 25.4441 163.644 25.6281 163.132 25.9961C162.635 26.3481 162.387 26.8441 162.387 27.4841C162.387 27.9481 162.548 28.3321 162.868 28.6361C163.203 28.9401 163.644 29.2121 164.188 29.4521C164.731 29.6761 165.347 29.8921 166.035 30.1001C166.723 30.3081 167.427 30.5401 168.147 30.7961C168.868 31.0521 169.572 31.3561 170.259 31.7081C170.947 32.0441 171.563 32.4681 172.107 32.9801C172.651 33.4761 173.084 34.0841 173.404 34.8041C173.74 35.5241 173.908 36.3881 173.908 37.3961C173.908 38.6281 173.684 39.7641 173.236 40.8041C172.788 41.8441 172.115 42.7401 171.219 43.4921C170.34 44.2441 169.243 44.8281 167.932 45.2441C166.636 45.6601 165.139 45.8681 163.443 45.8681C162.595 45.8681 161.747 45.7881 160.899 45.6281C160.051 45.4681 159.228 45.2521 158.427 44.9801C157.644 44.7081 156.915 44.3881 156.243 44.0201C155.572 43.6361 154.996 43.2281 154.516 42.7961L156.243 40.0601C156.436 39.7401 156.675 39.4921 156.964 39.3161C157.268 39.1241 157.652 39.0281 158.116 39.0281C158.548 39.0281 158.932 39.1241 159.268 39.3161C159.619 39.5081 159.995 39.7161 160.396 39.9401C160.796 40.1641 161.259 40.3721 161.787 40.5641C162.331 40.7561 163.011 40.8521 163.827 40.8521C164.404 40.8521 164.892 40.7961 165.292 40.6841C165.692 40.5561 166.012 40.3881 166.252 40.1801C166.492 39.9721 166.668 39.7401 166.78 39.4841C166.892 39.2281 166.948 38.9641 166.948 38.6921C166.948 38.1961 166.78 37.7881 166.444 37.4681C166.108 37.1481 165.668 36.8761 165.124 36.6521C164.58 36.4121 163.956 36.1961 163.252 36.0041C162.563 35.7961 161.86 35.5641 161.14 35.3081C160.42 35.0521 159.708 34.7481 159.004 34.3961C158.315 34.0281 157.7 33.5721 157.156 33.0281C156.612 32.4681 156.172 31.7881 155.836 30.9881C155.5 30.1881 155.331 29.2201 155.331 28.0841C155.331 27.0281 155.532 26.0281 155.932 25.0841C156.348 24.1241 156.964 23.2841 157.78 22.5641C158.596 21.8441 159.619 21.2761 160.852 20.8601C162.084 20.4281 163.523 20.2121 165.172 20.2121C166.068 20.2121 166.932 20.2921 167.764 20.4521C168.612 20.6121 169.404 20.8361 170.14 21.1241C170.876 21.4121 171.548 21.7561 172.156 22.1561C172.764 22.5401 173.3 22.9641 173.764 23.4281L172.084 26.0441Z" fill="white"/>
<path d="M189.115 20.2121C191.003 20.2121 192.722 20.5081 194.274 21.1001C195.826 21.6921 197.154 22.5401 198.258 23.6441C199.378 24.7481 200.242 26.0921 200.85 27.6761C201.474 29.2441 201.786 31.0121 201.786 32.9801C201.786 34.9641 201.474 36.7561 200.85 38.3561C200.242 39.9401 199.378 41.2921 198.258 42.4121C197.154 43.5161 195.826 44.3721 194.274 44.9801C192.722 45.5721 191.003 45.8681 189.115 45.8681C187.211 45.8681 185.475 45.5721 183.907 44.9801C182.354 44.3721 181.01 43.5161 179.874 42.4121C178.754 41.2921 177.882 39.9401 177.258 38.3561C176.65 36.7561 176.346 34.9641 176.346 32.9801C176.346 31.0121 176.65 29.2441 177.258 27.6761C177.882 26.0921 178.754 24.7481 179.874 23.6441C181.01 22.5401 182.354 21.6921 183.907 21.1001C185.475 20.5081 187.211 20.2121 189.115 20.2121ZM189.115 40.3481C190.826 40.3481 192.083 39.7481 192.882 38.5481C193.699 37.3321 194.106 35.4921 194.106 33.0281C194.106 30.5641 193.699 28.7321 192.882 27.5321C192.083 26.3321 190.826 25.7321 189.115 25.7321C187.354 25.7321 186.067 26.3321 185.251 27.5321C184.435 28.7321 184.026 30.5641 184.026 33.0281C184.026 35.4921 184.435 37.3321 185.251 38.5481C186.067 39.7481 187.354 40.3481 189.115 40.3481Z" fill="white"/>
<path d="M220.239 39.0761C221.327 39.0761 222.295 38.9001 223.143 38.5481C224.007 38.1801 224.735 37.6601 225.327 36.9881C225.919 36.3161 226.367 35.5001 226.671 34.5401C226.991 33.5641 227.151 32.4601 227.151 31.2281V10.5161H235.263V31.2281C235.263 33.3721 234.911 35.3401 234.207 37.1321C233.519 38.9241 232.527 40.4681 231.231 41.7641C229.935 43.0601 228.359 44.0681 226.503 44.7881C224.647 45.5081 222.559 45.8681 220.239 45.8681C217.903 45.8681 215.807 45.5081 213.951 44.7881C212.095 44.0681 210.519 43.0601 209.223 41.7641C207.927 40.4681 206.935 38.9241 206.247 37.1321C205.559 35.3401 205.215 33.3721 205.215 31.2281V10.5161H213.327V31.2041C213.327 32.4361 213.479 33.5401 213.783 34.5161C214.103 35.4761 214.559 36.3001 215.151 36.9881C215.743 37.6601 216.463 38.1801 217.311 38.5481C218.175 38.9001 219.151 39.0761 220.239 39.0761Z" fill="white"/>
<path d="M249.76 16.7561V25.6121H261.712V31.8761H249.76V45.4841H241.6V10.5161H264.112V16.7561H249.76Z" fill="white"/>
<path d="M308.1 10.5161V45.4841H300.948V25.3721C300.948 24.9081 300.956 24.4041 300.972 23.8601C301.004 23.3161 301.052 22.7641 301.116 22.2041L291.828 40.1801C291.54 40.7401 291.148 41.1641 290.652 41.4521C290.172 41.7401 289.62 41.8841 288.996 41.8841H287.892C287.268 41.8841 286.708 41.7401 286.212 41.4521C285.732 41.1641 285.348 40.7401 285.06 40.1801L275.772 22.1561C275.82 22.7321 275.86 23.3001 275.892 23.8601C275.924 24.4041 275.94 24.9081 275.94 25.3721V45.4841H268.788V10.5161H274.98C275.332 10.5161 275.636 10.5241 275.892 10.5401C276.164 10.5561 276.404 10.6041 276.612 10.6841C276.82 10.7641 277.004 10.8921 277.164 11.0681C277.34 11.2281 277.508 11.4601 277.668 11.7641L286.668 29.5001C286.988 30.1081 287.292 30.7401 287.58 31.3961C287.884 32.0521 288.172 32.7241 288.444 33.4121C288.716 32.7081 288.996 32.0201 289.284 31.3481C289.588 30.6761 289.908 30.0361 290.244 29.4281L299.22 11.7641C299.38 11.4601 299.54 11.2281 299.7 11.0681C299.876 10.8921 300.068 10.7641 300.276 10.6841C300.484 10.6041 300.716 10.5561 300.972 10.5401C301.244 10.5241 301.556 10.5161 301.908 10.5161H308.1Z" fill="white"/>
<path d="M334.186 17.6201C333.946 18.0041 333.69 18.2921 333.418 18.4841C333.162 18.6761 332.826 18.7721 332.41 18.7721C332.042 18.7721 331.642 18.6601 331.21 18.4361C330.794 18.1961 330.314 17.9321 329.77 17.6441C329.242 17.3561 328.634 17.1001 327.946 16.8761C327.258 16.6361 326.474 16.5161 325.594 16.5161C324.074 16.5161 322.938 16.8441 322.186 17.5001C321.45 18.1401 321.082 19.0121 321.082 20.1161C321.082 20.8201 321.306 21.4041 321.754 21.8681C322.202 22.3321 322.786 22.7321 323.506 23.0681C324.242 23.4041 325.074 23.7161 326.002 24.0041C326.946 24.2761 327.906 24.5881 328.882 24.9401C329.858 25.2761 330.81 25.6761 331.738 26.1401C332.682 26.6041 333.514 27.1961 334.234 27.9161C334.97 28.6361 335.562 29.5161 336.01 30.5561C336.458 31.5801 336.682 32.8201 336.682 34.2761C336.682 35.8921 336.402 37.4041 335.842 38.8121C335.282 40.2201 334.466 41.4521 333.394 42.5081C332.338 43.5481 331.026 44.3721 329.458 44.9801C327.906 45.5721 326.138 45.8681 324.154 45.8681C323.066 45.8681 321.954 45.7561 320.818 45.5321C319.698 45.3081 318.61 44.9961 317.554 44.5961C316.498 44.1801 315.506 43.6921 314.578 43.1321C313.65 42.5721 312.842 41.9481 312.154 41.2601L314.554 37.4681C314.746 37.1961 314.994 36.9721 315.298 36.7961C315.618 36.6041 315.962 36.5081 316.33 36.5081C316.81 36.5081 317.29 36.6601 317.77 36.9641C318.266 37.2681 318.818 37.6041 319.426 37.9721C320.05 38.3401 320.762 38.6761 321.562 38.9801C322.362 39.2841 323.306 39.4361 324.394 39.4361C325.866 39.4361 327.01 39.1161 327.826 38.4761C328.642 37.8201 329.05 36.7881 329.05 35.3801C329.05 34.5641 328.826 33.9001 328.378 33.3881C327.93 32.8761 327.338 32.4521 326.602 32.1161C325.882 31.7801 325.058 31.4841 324.13 31.2281C323.202 30.9721 322.25 30.6921 321.274 30.3881C320.298 30.0681 319.346 29.6841 318.418 29.2361C317.49 28.7721 316.658 28.1721 315.922 27.4361C315.202 26.6841 314.618 25.7561 314.17 24.6521C313.722 23.5321 313.498 22.1561 313.498 20.5241C313.498 19.2121 313.762 17.9321 314.29 16.6841C314.818 15.4361 315.594 14.3241 316.618 13.3481C317.642 12.3721 318.898 11.5961 320.386 11.0201C321.874 10.4281 323.578 10.1321 325.498 10.1321C326.57 10.1321 327.61 10.2201 328.618 10.3961C329.642 10.5561 330.61 10.8041 331.522 11.1401C332.434 11.4601 333.282 11.8521 334.066 12.3161C334.866 12.7641 335.578 13.2761 336.202 13.8521L334.186 17.6201Z" fill="white"/>
</svg>
