<svg width="193" height="32" viewBox="0 0 193 32" fill="none" xmlns="http://www.w3.org/2000/svg">
<path d="M28 4C28 2.89543 27.1046 2 26 2H24C22.8954 2 22 2.89543 22 4V30H28V4Z" fill="#FFA200"/>
<path d="M22 10.3999C22 9.29534 21.1046 8.3999 20 8.3999H18C16.8954 8.3999 16 9.29533 16 10.3999V29.9999H22V10.3999Z" fill="#009047"/>
<path d="M16 17.2C16 16.0954 15.1046 15.2 14 15.2H12C10.8954 15.2 10 16.0954 10 17.2V30H16V17.2Z" fill="#FFA200"/>
<path d="M10 21.2C10 20.0954 9.10457 19.2 8 19.2H6C4.89543 19.2 4 20.0954 4 21.2V30H10V21.2Z" fill="#009047"/>
<path d="M55.1496 20.8207C55.2593 20.8207 55.369 20.8435 55.4787 20.8892C55.5884 20.9258 55.6936 20.9944 55.7941 21.0949L57.6319 23.0287C56.8273 24.0801 55.817 24.8755 54.601 25.4149C53.3941 25.9452 51.9633 26.2104 50.3084 26.2104C48.7907 26.2104 47.4284 25.9544 46.2216 25.4424C45.0239 24.9212 44.0044 24.2081 43.1633 23.3029C42.3313 22.3887 41.6913 21.3098 41.2433 20.0664C40.7953 18.8138 40.5713 17.4561 40.5713 15.9932C40.5713 14.5029 40.8136 13.1361 41.2981 11.8927C41.7827 10.6401 42.4639 9.56122 43.3416 8.65608C44.2193 7.75094 45.2707 7.04694 46.4959 6.54408C47.721 6.04122 49.0696 5.78979 50.5416 5.78979C51.2913 5.78979 51.9953 5.85837 52.6536 5.99551C53.321 6.12351 53.9427 6.30637 54.5187 6.54408C55.0947 6.77265 55.625 7.05151 56.1096 7.38065C56.5941 7.70979 57.0239 8.06637 57.3987 8.45037L55.8353 10.5487C55.7347 10.6767 55.6159 10.7955 55.4787 10.9052C55.3416 11.0058 55.1496 11.0561 54.9027 11.0561C54.7381 11.0561 54.5827 11.0195 54.4364 10.9464C54.2901 10.8732 54.1347 10.7864 53.9701 10.6858C53.8056 10.5761 53.6227 10.4618 53.4216 10.3429C53.2296 10.2149 52.9964 10.1007 52.7221 10.0001C52.457 9.89037 52.1416 9.79894 51.7759 9.72579C51.4193 9.65265 50.9987 9.61608 50.5141 9.61608C49.7461 9.61608 49.0421 9.75779 48.4021 10.0412C47.7713 10.3247 47.2227 10.7407 46.7564 11.2892C46.2993 11.8287 45.9427 12.4961 45.6867 13.2915C45.4399 14.0778 45.3164 14.9784 45.3164 15.9932C45.3164 17.0172 45.4536 17.9269 45.7279 18.7224C46.0113 19.5178 46.3907 20.1898 46.8661 20.7384C47.3507 21.2778 47.913 21.6892 48.553 21.9727C49.193 22.2561 49.8787 22.3978 50.6101 22.3978C51.0307 22.3978 51.4147 22.3795 51.7621 22.3429C52.1096 22.2972 52.4341 22.2287 52.7359 22.1372C53.0376 22.0367 53.321 21.9087 53.5861 21.7532C53.8513 21.5887 54.121 21.3829 54.3953 21.1361C54.505 21.0447 54.6239 20.9715 54.7519 20.9167C54.8799 20.8527 55.0124 20.8207 55.1496 20.8207Z" fill="#2F363C"/>
<path d="M67.7127 17.1727C67.7127 16.8344 67.667 16.5052 67.5756 16.1852C67.4933 15.8652 67.3516 15.5818 67.1504 15.3349C66.9584 15.0789 66.7024 14.8732 66.3824 14.7178C66.0624 14.5624 65.6739 14.4847 65.2167 14.4847C64.4121 14.4847 63.7813 14.7178 63.3241 15.1841C62.867 15.6412 62.5653 16.3041 62.419 17.1727H67.7127ZM62.3641 19.6412C62.5013 20.8298 62.8624 21.6938 63.4476 22.2332C64.0327 22.7635 64.787 23.0287 65.7104 23.0287C66.2041 23.0287 66.6293 22.9692 66.9859 22.8504C67.3424 22.7315 67.6579 22.5989 67.9321 22.4527C68.2156 22.3064 68.4716 22.1738 68.7001 22.0549C68.9379 21.9361 69.1847 21.8767 69.4407 21.8767C69.779 21.8767 70.035 22.0001 70.2087 22.2469L71.443 23.7692C71.0041 24.2721 70.5287 24.6835 70.0167 25.0035C69.5139 25.3144 68.9927 25.5612 68.4533 25.7441C67.923 25.9178 67.3881 26.0367 66.8487 26.1007C66.3184 26.1738 65.811 26.2104 65.3264 26.2104C64.3299 26.2104 63.3927 26.0504 62.515 25.7304C61.6464 25.4012 60.883 24.9167 60.2247 24.2767C59.5756 23.6367 59.059 22.8412 58.675 21.8904C58.3001 20.9395 58.1127 19.8332 58.1127 18.5715C58.1127 17.6207 58.2727 16.7201 58.5927 15.8698C58.9219 15.0195 59.3881 14.2744 59.9916 13.6344C60.6041 12.9944 61.3401 12.4869 62.1996 12.1121C63.0681 11.7372 64.0464 11.5498 65.1344 11.5498C66.0761 11.5498 66.9356 11.6961 67.7127 11.9887C68.499 12.2812 69.171 12.7064 69.7287 13.2641C70.2956 13.8218 70.7344 14.5075 71.0453 15.3212C71.3653 16.1258 71.5253 17.0401 71.5253 18.0641C71.5253 18.3841 71.5116 18.6447 71.4841 18.8458C71.4567 19.0469 71.4064 19.2069 71.3333 19.3258C71.2601 19.4447 71.1596 19.5269 71.0316 19.5727C70.9127 19.6184 70.7573 19.6412 70.5653 19.6412H62.3641Z" fill="#2F363C"/>
<path d="M77.575 13.3052C77.8493 13.0492 78.1327 12.8115 78.4253 12.5921C78.7179 12.3727 79.0287 12.1898 79.3579 12.0435C79.6961 11.8881 80.0573 11.7692 80.4413 11.6869C80.8344 11.5955 81.2596 11.5498 81.7167 11.5498C82.4939 11.5498 83.1796 11.6869 83.7739 11.9612C84.3773 12.2264 84.8847 12.6012 85.2961 13.0858C85.7076 13.5612 86.0184 14.1327 86.2287 14.8001C86.439 15.4584 86.5441 16.1761 86.5441 16.9532V25.9909H82.2927V16.9532C82.2927 16.2584 82.1327 15.7189 81.8127 15.3349C81.4927 14.9418 81.0219 14.7452 80.4001 14.7452C79.9339 14.7452 79.495 14.8458 79.0836 15.0469C78.6813 15.2389 78.2882 15.5041 77.9042 15.8424V25.9909H73.6527V11.7692H76.2859C76.8161 11.7692 77.1636 12.0069 77.3281 12.4824L77.575 13.3052Z" fill="#2F363C"/>
<path d="M98.3333 14.8824C98.2236 15.0561 98.1047 15.1795 97.9767 15.2527C97.8579 15.3258 97.7024 15.3624 97.5104 15.3624C97.3093 15.3624 97.1081 15.3212 96.907 15.2389C96.7059 15.1475 96.4864 15.0515 96.2487 14.9509C96.0201 14.8504 95.7596 14.7589 95.467 14.6767C95.1744 14.5852 94.8407 14.5395 94.4659 14.5395C93.9264 14.5395 93.5104 14.6447 93.2179 14.8549C92.9344 15.0561 92.7927 15.3395 92.7927 15.7052C92.7927 15.9704 92.8841 16.1898 93.067 16.3635C93.259 16.5372 93.5104 16.6927 93.8213 16.8298C94.1321 16.9578 94.4841 17.0812 94.8773 17.2001C95.2704 17.3189 95.6727 17.4515 96.0841 17.5978C96.4956 17.7441 96.8979 17.9178 97.291 18.1189C97.6841 18.3109 98.0361 18.5532 98.347 18.8458C98.6579 19.1292 98.9047 19.4767 99.0876 19.8881C99.2796 20.2995 99.3756 20.7932 99.3756 21.3692C99.3756 22.0732 99.2476 22.7224 98.9916 23.3167C98.7356 23.9109 98.3516 24.4229 97.8396 24.8527C97.3367 25.2824 96.7104 25.6161 95.9607 25.8538C95.2202 26.0915 94.3653 26.2104 93.3961 26.2104C92.9116 26.2104 92.427 26.1647 91.9424 26.0732C91.4579 25.9818 90.987 25.8584 90.5299 25.7029C90.0819 25.5475 89.6659 25.3647 89.2819 25.1544C88.8979 24.9349 88.5687 24.7018 88.2944 24.4549L89.2819 22.8915C89.3916 22.7087 89.5287 22.5669 89.6933 22.4664C89.867 22.3567 90.0864 22.3018 90.3516 22.3018C90.5984 22.3018 90.8179 22.3567 91.0099 22.4664C91.211 22.5761 91.4259 22.6949 91.6544 22.8229C91.883 22.9509 92.1481 23.0698 92.4499 23.1795C92.7607 23.2892 93.1493 23.3441 93.6156 23.3441C93.9447 23.3441 94.2236 23.3121 94.4522 23.2481C94.6807 23.1749 94.8636 23.0789 95.0007 22.9601C95.1379 22.8412 95.2384 22.7087 95.3024 22.5624C95.3664 22.4161 95.3984 22.2652 95.3984 22.1098C95.3984 21.8264 95.3024 21.5932 95.1104 21.4104C94.9184 21.2275 94.667 21.0721 94.3562 20.9441C94.0453 20.8069 93.6887 20.6835 93.2864 20.5738C92.8933 20.4549 92.491 20.3224 92.0796 20.1761C91.6682 20.0298 91.2613 19.8561 90.859 19.6549C90.4659 19.4447 90.1139 19.1841 89.803 18.8732C89.4921 18.5532 89.2407 18.1647 89.0487 17.7075C88.8567 17.2504 88.7607 16.6972 88.7607 16.0481C88.7607 15.4447 88.875 14.8732 89.1036 14.3338C89.3413 13.7852 89.6933 13.3052 90.1596 12.8938C90.6259 12.4824 91.211 12.1578 91.915 11.9201C92.619 11.6732 93.4419 11.5498 94.3836 11.5498C94.8956 11.5498 95.3893 11.5955 95.8647 11.6869C96.3493 11.7784 96.8019 11.9064 97.2224 12.0709C97.643 12.2355 98.027 12.4321 98.3744 12.6607C98.7219 12.8801 99.0282 13.1224 99.2933 13.3875L98.3333 14.8824Z" fill="#2F363C"/>
<path d="M108.065 11.5498C109.144 11.5498 110.127 11.7189 111.014 12.0572C111.901 12.3955 112.66 12.8801 113.29 13.5109C113.93 14.1418 114.424 14.9098 114.772 15.8149C115.128 16.7109 115.306 17.7212 115.306 18.8458C115.306 19.9795 115.128 21.0035 114.772 21.9178C114.424 22.8229 113.93 23.5955 113.29 24.2355C112.66 24.8664 111.901 25.3555 111.014 25.7029C110.127 26.0412 109.144 26.2104 108.065 26.2104C106.977 26.2104 105.985 26.0412 105.089 25.7029C104.202 25.3555 103.434 24.8664 102.785 24.2355C102.145 23.5955 101.647 22.8229 101.29 21.9178C100.943 21.0035 100.769 19.9795 100.769 18.8458C100.769 17.7212 100.943 16.7109 101.29 15.8149C101.647 14.9098 102.145 14.1418 102.785 13.5109C103.434 12.8801 104.202 12.3955 105.089 12.0572C105.985 11.7189 106.977 11.5498 108.065 11.5498ZM108.065 23.0561C109.044 23.0561 109.761 22.7132 110.218 22.0275C110.685 21.3327 110.918 20.2812 110.918 18.8732C110.918 17.4652 110.685 16.4184 110.218 15.7327C109.761 15.0469 109.044 14.7041 108.065 14.7041C107.06 14.7041 106.324 15.0469 105.857 15.7327C105.391 16.4184 105.158 17.4652 105.158 18.8732C105.158 20.2812 105.391 21.3327 105.857 22.0275C106.324 22.7132 107.06 23.0561 108.065 23.0561Z" fill="#2F363C"/>
<path d="M125.851 22.3292C126.473 22.3292 127.026 22.2287 127.51 22.0275C128.004 21.8172 128.42 21.5201 128.758 21.1361C129.097 20.7521 129.353 20.2858 129.526 19.7372C129.709 19.1795 129.801 18.5487 129.801 17.8447V6.00922H134.436V17.8447C134.436 19.0698 134.235 20.1944 133.833 21.2184C133.439 22.2424 132.873 23.1247 132.132 23.8652C131.391 24.6058 130.491 25.1818 129.43 25.5932C128.37 26.0047 127.177 26.2104 125.851 26.2104C124.516 26.2104 123.318 26.0047 122.258 25.5932C121.197 25.1818 120.297 24.6058 119.556 23.8652C118.815 23.1247 118.249 22.2424 117.855 21.2184C117.462 20.1944 117.266 19.0698 117.266 17.8447V6.00922H121.901V17.8309C121.901 18.5349 121.988 19.1658 122.162 19.7235C122.345 20.2721 122.605 20.7429 122.943 21.1361C123.282 21.5201 123.693 21.8172 124.178 22.0275C124.671 22.2287 125.229 22.3292 125.851 22.3292Z" fill="#2F363C"/>
<path d="M142.72 9.57494V14.6355H149.55V18.2149H142.72V25.9909H138.057V6.00922H150.921V9.57494H142.72Z" fill="#2F363C"/>
<path d="M176.057 6.00922V25.9909H171.97V14.4984C171.97 14.2332 171.975 13.9452 171.984 13.6344C172.002 13.3235 172.029 13.0081 172.066 12.6881L166.759 22.9601C166.594 23.2801 166.37 23.5224 166.087 23.6869C165.812 23.8515 165.497 23.9338 165.14 23.9338H164.509C164.153 23.9338 163.833 23.8515 163.549 23.6869C163.275 23.5224 163.056 23.2801 162.891 22.9601L157.584 12.6607C157.611 12.9898 157.634 13.3144 157.652 13.6344C157.671 13.9452 157.68 14.2332 157.68 14.4984V25.9909H153.593V6.00922H157.131C157.332 6.00922 157.506 6.0138 157.652 6.02294C157.808 6.03208 157.945 6.05951 158.064 6.10522C158.183 6.15094 158.288 6.22408 158.379 6.32465C158.48 6.41608 158.576 6.54865 158.667 6.72237L163.81 16.8572C163.993 17.2047 164.167 17.5658 164.331 17.9407C164.505 18.3155 164.669 18.6995 164.825 19.0927C164.98 18.6904 165.14 18.2972 165.305 17.9132C165.479 17.5292 165.661 17.1635 165.853 16.8161L170.983 6.72237C171.074 6.54865 171.165 6.41608 171.257 6.32465C171.357 6.22408 171.467 6.15094 171.586 6.10522C171.705 6.05951 171.837 6.03208 171.984 6.02294C172.139 6.0138 172.317 6.00922 172.519 6.00922H176.057Z" fill="#2F363C"/>
<path d="M190.963 10.0687C190.826 10.2881 190.68 10.4527 190.524 10.5624C190.378 10.6721 190.186 10.7269 189.948 10.7269C189.738 10.7269 189.51 10.6629 189.263 10.5349C189.025 10.3978 188.751 10.2469 188.44 10.0824C188.138 9.91779 187.791 9.77151 187.398 9.64351C187.004 9.50637 186.556 9.4378 186.054 9.4378C185.185 9.4378 184.536 9.62522 184.106 10.0001C183.686 10.3658 183.475 10.8641 183.475 11.4949C183.475 11.8972 183.603 12.2309 183.859 12.4961C184.115 12.7612 184.449 12.9898 184.86 13.1818C185.281 13.3738 185.756 13.5521 186.287 13.7167C186.826 13.8721 187.375 14.0504 187.932 14.2515C188.49 14.4435 189.034 14.6721 189.564 14.9372C190.104 15.2024 190.579 15.5407 190.991 15.9521C191.411 16.3635 191.75 16.8664 192.006 17.4607C192.262 18.0458 192.39 18.7544 192.39 19.5864C192.39 20.5098 192.23 21.3738 191.91 22.1784C191.59 22.9829 191.123 23.6869 190.511 24.2904C189.907 24.8847 189.158 25.3555 188.262 25.7029C187.375 26.0412 186.364 26.2104 185.231 26.2104C184.609 26.2104 183.974 26.1464 183.324 26.0184C182.684 25.8904 182.063 25.7121 181.459 25.4835C180.856 25.2458 180.289 24.9669 179.759 24.6469C179.228 24.3269 178.767 23.9704 178.374 23.5772L179.745 21.4104C179.855 21.2549 179.996 21.1269 180.17 21.0264C180.353 20.9167 180.55 20.8618 180.76 20.8618C181.034 20.8618 181.308 20.9487 181.583 21.1224C181.866 21.2961 182.182 21.4881 182.529 21.6984C182.886 21.9087 183.292 22.1007 183.75 22.2744C184.207 22.4481 184.746 22.5349 185.368 22.5349C186.209 22.5349 186.863 22.3521 187.329 21.9864C187.795 21.6115 188.028 21.0218 188.028 20.2172C188.028 19.7509 187.9 19.3715 187.644 19.0789C187.388 18.7864 187.05 18.5441 186.63 18.3521C186.218 18.1601 185.747 17.9909 185.217 17.8447C184.687 17.6984 184.143 17.5384 183.585 17.3647C183.027 17.1818 182.483 16.9624 181.953 16.7064C181.423 16.4412 180.947 16.0984 180.527 15.6778C180.115 15.2481 179.782 14.7178 179.526 14.0869C179.27 13.4469 179.142 12.6607 179.142 11.7281C179.142 10.9784 179.292 10.2469 179.594 9.53379C179.896 8.82065 180.339 8.18522 180.924 7.62751C181.51 7.06979 182.227 6.62637 183.078 6.29722C183.928 5.95894 184.902 5.78979 185.999 5.78979C186.611 5.78979 187.206 5.84008 187.782 5.94065C188.367 6.03208 188.92 6.17379 189.441 6.36579C189.962 6.54865 190.447 6.77265 190.895 7.03779C191.352 7.29379 191.759 7.58637 192.115 7.91551L190.963 10.0687Z" fill="#2F363C"/>
</svg>
